<?xml version="1.0" encoding="utf-8"?><svg version="1.1" id="Layer_1" xmlns="http://www.w3.org/2000/svg" xmlns:xlink="http://www.w3.org/1999/xlink" x="0px" y="0px" viewBox="0 0 122.88 95.16" style="enable-background:new 0 0 122.88 95.16" xml:space="preserve"><style type="text/css"><![CDATA[
	.st0{fill:#4CAF50;}
	.st1{fill:#2196F3;}
	.st2{fill:#F44336;}
	.st3{fill:#262626;}
	.st4{fill:#FFD54F;}
	.st5{fill-rule:evenodd;clip-rule:evenodd;fill:#262626;}
	.st6{fill-rule:evenodd;clip-rule:evenodd;fill:#FFFFFF;}
]]></style><g><path class="st3" d="M104.43,21.23h0.27c0.78,0,1.47,0.36,1.93,0.91c11.41,11.74,17.4,37.23,16.07,54.29 c-0.37,4.73-1.3,8.89-2.83,12.03c-1.74,3.58-4.25,5.93-7.61,6.55c-4.28,0.79-9.63-1.47-16.06-8.02c-0.83-0.84-1.69-1.69-2.57-2.56 c-3-2.95-6.16-6.06-8.83-9.81H38.08c-2.68,3.78-5.84,6.89-8.85,9.84c-0.87,0.86-1.73,1.7-2.55,2.53 c-6.43,6.55-11.78,8.81-16.06,8.02c-3.36-0.62-5.88-2.97-7.61-6.55c-1.53-3.15-2.46-7.3-2.83-12.03 C-1.15,59.29,4.9,33.65,16.4,21.98c0.49-0.5,1.13-0.75,1.78-0.75v-0.01h0.28c1.41-1.94,3.16-3.5,5.13-4.68 c2.99-1.79,6.47-2.68,9.93-2.68c3.47,0,6.95,0.89,9.93,2.68c1.96,1.17,3.71,2.73,5.1,4.67h7.91C55.85,6.29,60,2.53,66.13,2.11 c2.22-0.15,4.57,0.24,7.03,0.65c4.65,0.77,9.79,1.62,13.44-2.03c0.98-0.98,2.56-0.98,3.54,0c0.98,0.98,0.98,2.56,0,3.54 C84.68,9.74,78.21,8.67,72.36,7.7C70.19,7.34,68.13,7,66.46,7.1c-3.31,0.22-5.51,2.98-4.99,14.12h12.87 c1.4-1.94,3.16-3.51,5.12-4.68c2.99-1.79,6.47-2.68,9.92-2.68c3.45,0,6.93,0.9,9.92,2.68C101.27,17.72,103.03,19.28,104.43,21.23 L104.43,21.23L104.43,21.23z"/><path d="M93.4,29.07c1.62,1.62,2.43,3.73,2.43,5.85c0,2.11-0.81,4.22-2.43,5.84l-0.01,0.01c-1.62,1.62-3.73,2.43-5.84,2.43 c-2.11,0-4.22-0.81-5.84-2.43l-0.01-0.01c-1.62-1.62-2.43-3.73-2.43-5.84c0-2.12,0.81-4.23,2.43-5.85 c1.61-1.61,3.73-2.42,5.85-2.42c2.11,0,4.22,0.81,5.84,2.42H93.4L93.4,29.07L93.4,29.07z"/><path class="st4" d="M91.27,31.2c2.06,2.06,2.06,5.38,0,7.44c-2.06,2.06-5.38,2.06-7.44,0s-2.06-5.38,0-7.44 C85.88,29.16,89.21,29.16,91.27,31.2L91.27,31.2L91.27,31.2z"/><path d="M80.77,40.04c0.07,0.07,0.13,0.14,0.19,0.21c1.49,1.59,2.24,3.62,2.24,5.64c0,2.11-0.81,4.22-2.43,5.84l-0.01,0.01 l0.01,0.01c-1.62,1.62-3.73,2.43-5.85,2.43c-2.12,0-4.23-0.81-5.85-2.43s-2.43-3.73-2.43-5.85c0-2.12,0.81-4.23,2.43-5.85 l0.01-0.01c0.07-0.07,0.14-0.13,0.21-0.2c1.59-1.48,3.61-2.22,5.63-2.22c2.11,0,4.22,0.81,5.84,2.42L80.77,40.04L80.77,40.04z"/><path class="st1" d="M78.64,42.17c2.06,2.06,2.06,5.38,0,7.44c-2.06,2.06-5.38,2.06-7.44,0c-2.06-2.06-2.06-5.38,0-7.44 C73.26,40.12,76.59,40.12,78.64,42.17L78.64,42.17L78.64,42.17z"/><path d="M106.02,40.04c1.62,1.62,2.43,3.73,2.43,5.85c0,2.12-0.81,4.23-2.43,5.85s-3.73,2.43-5.85,2.43 c-2.11,0-4.22-0.81-5.84-2.43l-0.01-0.01l-0.01,0.01c-1.62-1.62-2.43-3.73-2.43-5.85c0-2.12,0.81-4.23,2.43-5.85 s3.73-2.43,5.85-2.43S104.4,38.43,106.02,40.04L106.02,40.04z"/><path class="st2" d="M103.89,42.17c2.06,2.06,2.06,5.38,0,7.44c-2.06,2.06-5.38,2.06-7.44,0c-2.06-2.06-2.06-5.38,0-7.44 C98.51,40.12,101.83,40.12,103.89,42.17L103.89,42.17L103.89,42.17z"/><path d="M93.4,52.01c1.62,1.62,2.43,3.73,2.43,5.85c0,2.11-0.81,4.22-2.43,5.84l-0.01,0.01l0.01,0.01 c-1.62,1.62-3.73,2.43-5.85,2.43c-2.12,0-4.23-0.81-5.85-2.43c-0.07-0.07-0.13-0.14-0.19-0.21c-1.49-1.59-2.24-3.62-2.24-5.64 c0-2.12,0.81-4.23,2.43-5.85c0.07-0.07,0.13-0.13,0.21-0.19c1.59-1.49,3.61-2.23,5.64-2.23c2.11,0,4.22,0.81,5.84,2.42H93.4 L93.4,52.01L93.4,52.01z"/><path class="st0" d="M91.27,54.14c2.06,2.06,2.06,5.38,0,7.44c-2.06,2.06-5.38,2.06-7.44,0s-2.06-5.38,0-7.44 C85.88,52.1,89.21,52.1,91.27,54.14L91.27,54.14L91.27,54.14z"/><path class="st6" d="M33.49,31.31L33.49,31.31c3.14,0,5.7,2.57,5.7,5.7v6.66h6.66c3.14,0,5.7,2.57,5.7,5.7l0,0 c0,3.14-2.57,5.7-5.7,5.7h-6.66v6.66c0,3.14-2.57,5.7-5.7,5.7l0,0c-3.14,0-5.7-2.57-5.7-5.7v-6.66h-6.66c-3.14,0-5.7-2.57-5.7-5.7 l0,0c0-3.14,2.57-5.7,5.7-5.7h6.66v-6.66C27.79,33.88,30.35,31.31,33.49,31.31L33.49,31.31z"/><path class="st5" d="M48.96,49.58l-3.63,3.63v-7.26L48.96,49.58L48.96,49.58z M33.67,34.29l3.63,3.63h-7.26L33.67,34.29 L33.67,34.29z M18.39,49.58l3.63,3.63v-7.26L18.39,49.58L18.39,49.58z M33.67,64.86l3.63-3.63h-7.26L33.67,64.86L33.67,64.86z"/></g></svg>