<?xml version="1.0" standalone="no"?>
<!DOCTYPE svg PUBLIC "-//W3C//DTD SVG 20010904//EN"
 "http://www.w3.org/TR/2001/REC-SVG-20010904/DTD/svg10.dtd">
<svg version="1.0" xmlns="http://www.w3.org/2000/svg"
 width="404.000000pt" height="404.000000pt" viewBox="0 0 404.000000 404.000000"
 preserveAspectRatio="xMidYMid meet">
<metadata>
Created by potrace 1.14, written by Peter Selinger 2001-2017
</metadata>
<g transform="translate(0.000000,404.000000) scale(0.100000,-0.100000)"
fill="#000000" stroke="none">
<path d="M2434 3262 c-179 -172 -484 -464 -527 -503 -36 -34 -39 -41 -44 -103
-3 -36 -8 -66 -12 -66 -3 1 -73 34 -155 75 -82 40 -155 71 -162 68 -9 -3 -12
-16 -9 -36 2 -18 7 -75 10 -127 4 -52 8 -116 10 -142 5 -52 9 -50 -76 -27 -45
12 -50 11 -120 -21 -41 -18 -209 -93 -374 -167 -404 -180 -415 -185 -415 -194
0 -19 37 -26 165 -29 77 -1 165 -4 195 -5 125 -5 578 -18 622 -18 26 0 46 -3
46 -6 -2 -7 18 -54 39 -93 7 -15 13 -30 13 -33 -1 -3 33 -93 75 -201 59 -148
81 -194 93 -192 9 2 33 42 56 93 22 50 43 92 46 95 4 3 10 13 13 23 6 17 13
14 55 -23 26 -23 46 -47 44 -52 -1 -5 2 -7 8 -3 5 3 25 -9 45 -26 29 -27 33
-35 22 -48 -10 -14 -10 -14 4 -4 12 10 20 9 38 -3 18 -13 20 -18 9 -32 -10
-14 -10 -15 2 -5 14 12 34 0 115 -73 17 -14 45 -37 62 -51 18 -14 30 -29 27
-34 -3 -5 0 -8 8 -7 7 2 12 -5 12 -15 -2 -13 1 -15 10 -7 15 12 61 -31 49 -45
-5 -4 -2 -5 5 -1 7 4 12 2 12 -5 0 -7 3 -9 7 -6 10 10 34 -14 26 -27 -3 -6 -3
-8 2 -4 9 9 37 -11 30 -21 -2 -4 2 -8 9 -8 15 0 86 -54 86 -66 0 -5 -5 -5 -12
-1 -6 4 -8 3 -5 -3 9 -15 57 -3 57 14 0 15 -34 125 -86 277 -18 54 -31 102
-29 106 3 5 1 10 -3 12 -14 5 -54 137 -46 150 4 6 3 8 -3 5 -7 -5 -32 60 -58
153 -1 3 -4 12 -8 20 -10 24 -47 143 -47 150 0 5 70 10 207 13 28 1 44 6 48
17 6 15 -16 38 -297 303 -59 56 -104 105 -101 110 16 27 351 942 347 949 -12
19 -34 2 -140 -100z"/>
<path d="M2050 1540 c0 -5 5 -10 11 -10 5 0 7 5 4 10 -3 6 -8 10 -11 10 -2 0
-4 -4 -4 -10z"/>
</g>
</svg>
