<svg xmlns="http://www.w3.org/2000/svg" fill="currentColor" class="bi bi-share-fill" viewBox="0 0 24 24">
    <!--icons sourced from https://icons.getbootstrap.com/ add more to this sprite sheet-->
    <defs>
        <style><![CDATA[
      .sprite { display: none; }
      .sprite:target { display: inline; }
    ]]></style>
    </defs>

    <g class="sprite" id="open-icon" transform="translate(1 2)">
        <path transform="translate(1 2)" fill="#a0a0a0" fill-rule="evenodd" d="M8.636 3.5a.5.5 0 0 0-.5-.5H1.5A1.5 1.5 0 0 0 0 4.5v10A1.5 1.5 0 0 0 1.5 16h10a1.5 1.5 0 0 0 1.5-1.5V7.864a.5.5 0 0 0-1 0V14.5a.5.5 0 0 1-.5.5h-10a.5.5 0 0 1-.5-.5v-10a.5.5 0 0 1 .5-.5h6.636a.5.5 0 0 0 .5-.5z"/>
        <path transform="translate(1 2)" fill="#a0a0a0" fill-rule="evenodd" d="M16 .5a.5.5 0 0 0-.5-.5h-5a.5.5 0 0 0 0 1h3.793L6.146 9.146a.5.5 0 1 0 .708.708L15 1.707V5.5a.5.5 0 0 0 1 0v-5z"/>
    </g>

    <g class="sprite" id="pinned-icon" transform="translate(1 2)">
        <path transform="translate(1 2)" fill="#a0a0a0" d="M4.146.146A.5.5 0 0 1 4.5 0h7a.5.5 0 0 1 .5.5c0 .68-.342 1.174-.646 1.479-.126.125-.25.224-.354.298v4.431l.078.048c.203.127.476.314.751.555C12.36 7.775 13 8.527 13 9.5a.5.5 0 0 1-.5.5h-4v4.5c0 .276-.224 1.5-.5 1.5s-.5-1.224-.5-1.5V10h-4a.5.5 0 0 1-.5-.5c0-.973.64-1.725 1.17-2.189A5.921 5.921 0 0 1 5 6.708V2.277a2.77 2.77 0 0 1-.354-.298C4.342 1.674 4 1.179 4 .5a.5.5 0 0 1 .146-.354z"/>
    </g>

    <g class="sprite" id="unpinned-icon" transform="translate(1 2)">
        <path transform="translate(1 2)" fill="#a0a0a0" d="M9.828.722a.5.5 0 0 1 .354.146l4.95 4.95a.5.5 0 0 1 0 .707c-.48.48-1.072.588-1.503.588-.177 0-.335-.018-.46-.039l-3.134 3.134a5.927 5.927 0 0 1 .16 1.013c.046.702-.032 1.687-.72 2.375a.5.5 0 0 1-.707 0l-2.829-2.828-3.182 3.182c-.195.195-1.219.902-1.414.707-.195-.195.512-1.22.707-1.414l3.182-3.182-2.828-2.829a.5.5 0 0 1 0-.707c.688-.688 1.673-.767 2.375-.72a5.922 5.922 0 0 1 1.013.16l3.134-3.133a2.772 2.772 0 0 1-.04-.461c0-.43.108-1.022.589-1.503a.5.5 0 0 1 .353-.146z"/>
    </g>

    <g class="sprite" id="reload-icon" transform="translate(1 2)">
        <path transform="translate(2 2)" fill="#a0a0a0" fill-rule="evenodd" d="M8 3a5 5 0 1 0 4.546 2.914.5.5 0 0 1 .908-.417A6 6 0 1 1 8 2v1z"/>
        <path transform="translate(2 2)" fill="#a0a0a0"  d="M8 4.466V.534a.25.25 0 0 1 .41-.192l2.36 1.966c.12.1.12.284 0 .384L8.41 4.658A.25.25 0 0 1 8 4.466z"/>
    </g>

    <g class="sprite" id="pointer-fill-icon" transform="translate(1 2)">
        <path transform="translate(2 1)" fill="#a0a0a0" d="M14.082 2.182a.5.5 0 0 1 .103.557L8.528 15.467a.5.5 0 0 1-.917-.007L5.57 10.694.803 8.652a.5.5 0 0 1-.006-.916l12.728-5.657a.5.5 0 0 1 .556.103z"/>
    </g>

    <g class="sprite" id="pointer-icon" transform="translate(1 2)">
        <path transform="translate(2 1)" fill="#a0a0a0" d="M14.082 2.182a.5.5 0 0 1 .103.557L8.528 15.467a.5.5 0 0 1-.917-.007L5.57 10.694.803 8.652a.5.5 0 0 1-.006-.916l12.728-5.657a.5.5 0 0 1 .556.103zM2.25 8.184l3.897 1.67a.5.5 0 0 1 .262.263l1.67 3.897L12.743 3.52 2.25 8.184z"/>
    </g>

</svg>
