<svg width="1440" height="347" viewBox="0 0 1440 347" fill="none" xmlns="http://www.w3.org/2000/svg">
<path d="M1738.29 214.47C1730.89 213.951 1724.09 214.146 1718.85 214.923C1717.67 210.388 1711.67 206.987 1704.46 207.052C1697.15 207.117 1691.15 210.712 1690.16 215.344C1686.97 212.429 1682.69 210.777 1678.06 211.166C1673.85 211.522 1670.18 213.53 1667.53 216.478C1663.8 211.943 1658.18 209.19 1652.05 209.19C1649.63 203.522 1643.92 199.764 1637.53 200.315C1635.33 200.509 1633.29 201.222 1631.47 202.291C1626.14 194.322 1616.88 189.431 1606.77 190.274C1599.93 190.857 1593.93 193.966 1589.5 198.598C1582.64 194.193 1574.4 191.893 1565.69 192.638C1560.14 193.092 1554.97 194.776 1550.4 197.302C1547.59 183.925 1535.4 174.434 1521.61 175.6C1519.63 175.762 1517.75 176.151 1515.93 176.702C1515.93 176.475 1515.93 176.281 1515.9 176.054C1514.66 160.862 1501.54 149.59 1486.57 150.854C1484.56 151.015 1482.61 151.437 1480.76 152.02C1471.09 124.973 1444.6 106.672 1414.98 109.166C1401.04 110.332 1388.56 116.001 1378.63 124.552C1374.16 100.809 1352.65 83.8362 1328.4 85.8769C1314.7 87.043 1302.89 94.0395 1295.08 104.243C1287.67 61.0329 1248.92 29.9374 1205.01 33.63C1184.81 35.3143 1166.9 44.1247 1153.4 57.3727C1131.19 30.7795 1097.1 15.0374 1060.24 18.147C1007.26 22.617 966.151 64.4339 959.991 116.001C952.299 114.446 944.288 113.863 936.054 114.543C892.202 118.236 858.882 154.74 857.446 198.307C852.179 196.946 846.626 196.363 840.881 196.849C822.306 198.404 806.987 210.097 799.646 226.098C794.252 224.964 788.667 224.543 782.89 225.029C762.496 226.746 745.421 238.893 736.261 255.866C732.048 253.469 727.133 252.303 721.995 252.724C710.633 253.695 701.696 262.182 699.558 272.968C697.196 272.158 694.643 271.77 691.994 271.996C683.6 272.709 677.089 278.993 675.43 286.929C669.653 288.613 665.025 292.727 662.44 298.039C662.248 298.039 662.057 298.007 661.834 298.039C657.206 298.428 653.248 300.792 650.599 304.193C648.844 299.788 642.365 297.229 635.152 298.395C628.035 299.561 622.673 303.902 622.226 308.566C616.928 308.696 610.194 309.603 602.981 311.384C587.182 315.239 575.15 321.555 576.076 325.539C576.937 329.102 587.917 329.555 601.545 326.835C604.704 329.102 610.992 330.495 618.268 330.139C624.747 329.815 630.365 328.195 633.556 326.025C636.141 328.746 639.812 330.333 643.833 329.977C647.088 329.717 649.897 328.195 652.003 325.992C655.227 329.167 659.695 331.013 664.515 330.624C667.77 330.365 670.738 329.102 673.132 327.191C676.164 328.487 679.515 329.199 683.058 328.875C689.122 328.357 694.324 325.28 697.803 320.777C702.845 326.284 710.25 329.491 718.197 328.843C726.846 328.13 734.091 323.012 738.017 315.854C749.283 334.155 769.932 345.622 792.593 343.71C810.88 342.156 826.487 332.276 836.126 318.024C845.413 336.163 864.754 347.824 886.074 346.043C909.085 344.099 927.277 327.094 932.065 305.392C941.001 324.438 960.821 336.844 982.747 334.997C1002.31 333.345 1018.4 320.81 1025.71 303.74C1042.75 327.58 1071.22 342.123 1102.24 339.5C1126.11 337.491 1146.86 325.733 1161.06 308.404C1171.91 323.174 1189.72 332.114 1209.13 330.495C1225.31 329.134 1239.19 320.68 1248.16 308.469C1265.58 321.393 1287.48 328.292 1310.68 326.316C1338.64 323.952 1362.67 309.246 1378.06 287.933C1389.26 295.61 1402.98 299.626 1417.47 298.395C1437.8 296.678 1454.94 285.082 1464.84 268.693C1474.06 276.596 1486.22 280.936 1499.21 279.867C1516 278.442 1529.94 268.271 1537.19 254.149C1544.82 265.227 1557.81 271.996 1572.04 270.798C1583.21 269.859 1592.82 264.158 1599.23 255.866C1604.05 259.04 1609.86 260.692 1616.02 260.174C1625.85 259.331 1633.99 253.21 1637.98 244.788C1642.03 248.707 1647.62 250.942 1653.62 250.424C1660.48 249.841 1666.19 245.889 1669.45 240.318C1672.54 242.78 1676.47 244.14 1680.68 243.784C1685.5 243.363 1689.62 240.804 1692.27 237.144C1694.69 238.957 1697.73 239.994 1700.98 239.702C1704.97 239.379 1708.35 237.176 1710.46 234.099C1713.97 235.718 1719.78 236.366 1726.23 235.589C1733.44 234.714 1739.44 232.317 1742.18 229.532C1756.1 229.92 1766.85 227.653 1767.11 223.993C1767.4 219.879 1754.5 215.636 1738.29 214.47Z" fill="#31508C"/>
<path d="M865.616 284.759C865.616 279.932 840.53 277.892 828.913 277.892C828.913 277.892 823.008 270.733 813.019 270.506C808.646 270.409 805.104 271.413 803.189 273.584C801.242 271.413 798.497 270.021 795.369 270.021C792.816 270.021 790.55 270.96 788.699 272.482C786.848 269.405 783.529 267.332 779.699 267.332C776.794 267.332 774.113 268.531 772.198 270.474C770.507 262.668 763.645 256.805 755.443 256.805C753.974 256.805 752.57 257.032 751.23 257.388C747.113 252.529 741.08 249.42 734.282 249.42C730.74 249.42 727.421 250.327 724.452 251.817C723.016 244.95 717.016 239.8 709.803 239.8C706.58 239.8 703.643 240.836 701.218 242.585C698.473 239.411 694.483 237.338 689.983 237.338C686.504 237.338 683.313 238.601 680.792 240.609C679.004 231.086 670.77 223.896 660.908 223.896C658.993 223.896 657.174 224.252 655.418 224.77C655.546 223.604 655.61 222.438 655.61 221.207C655.61 203.424 641.375 188.978 623.854 188.978C614.566 188.978 606.236 193.027 600.427 199.505C593.342 193.642 584.948 189.399 575.725 187.261C575.884 186.354 576.012 185.447 576.012 184.508C576.012 176.119 569.31 169.284 561.012 169.284C558.554 169.284 556.256 169.932 554.182 171.001C545.756 155.583 529.574 145.088 510.968 145.088C510.776 145.088 510.585 145.12 510.393 145.12C510.744 142.756 510.968 140.391 510.968 137.929C510.968 110.267 488.85 87.8204 461.594 87.8204C452.53 87.8204 444.072 90.3469 436.763 94.6549C429.646 76.9369 412.858 64.3368 393.071 63.527C390.9 49.534 378.964 38.8449 364.57 38.8449C356.399 38.8449 349.027 42.3108 343.793 47.8497C331.537 38.4239 316.313 32.7878 299.749 32.7878C288.961 32.7878 278.748 35.2171 269.524 39.4604C254.588 16.074 228.704 0.558594 199.214 0.558594C166.181 0.558594 137.68 20.0257 124.052 48.2384C121.403 47.8173 118.69 47.5258 115.914 47.5258C87.1895 47.5258 63.8909 71.1713 63.8909 100.323C63.8909 103.854 64.242 107.287 64.9122 110.656C64.7207 110.656 64.5292 110.624 64.3377 110.624C38.5817 110.624 17.2619 129.637 13.1129 154.611C-4.66425 158.336 -18.8029 172.102 -23.4627 189.755C-25.8563 189.237 -28.3139 188.946 -30.8671 188.946C-50.1124 188.946 -65.6873 204.785 -65.6873 224.284C-65.6873 224.479 -65.6554 224.673 -65.6554 224.867C-69.9321 220.268 -75.9322 217.32 -82.6665 217.32C-94.8902 217.32 -104.784 226.876 -105.837 238.99C-109.029 235.33 -113.625 232.965 -118.827 232.965C-127.764 232.965 -135.04 239.832 -136.062 248.642C-166.541 250.975 -190.861 254.181 -188.946 267.073C-187.35 277.827 -159.743 283.949 -118.795 283.949C-77.8472 283.949 -58.9211 281.584 -54.7721 277.827C-50.623 284.467 -43.3781 288.937 -35.0481 288.937C-28.3458 288.937 -22.3137 286.022 -18.0689 281.422C-12.0368 292.435 -0.483292 299.885 12.7937 299.885C23.0706 299.885 32.3262 295.383 38.7731 288.257C45.3478 293.828 53.8055 297.197 63.0611 297.197C70.0506 297.197 76.5934 295.221 82.2425 291.852C95.9025 301.667 112.531 307.465 130.531 307.465C147.127 307.465 162.543 302.509 175.564 294.055C184.628 297.456 194.363 299.399 204.608 299.399C216.959 299.399 228.608 296.614 239.173 291.755C242.556 313.068 260.684 329.361 282.642 329.361C301.632 329.361 317.813 317.15 323.973 300.015C338.303 308.372 354.867 313.23 372.581 313.23C388.251 313.23 402.996 309.376 416.146 302.736C421.539 312.712 432.008 319.514 444.008 319.514C454.445 319.514 463.668 314.364 469.445 306.493C473.658 307.821 478.158 308.566 482.786 308.566C486.169 308.566 489.456 308.145 492.616 307.432C498.169 316.793 508.255 323.11 519.808 323.11C531.681 323.11 542.022 316.469 547.447 306.687C581.725 322.462 625.864 315.854 659.568 305.975C665.185 315.044 675.111 321.101 686.441 321.101C697.771 321.101 707.665 315.077 713.314 306.007C717.207 310.671 722.952 313.716 729.431 313.716C735.463 313.716 740.857 311.125 744.719 307.044C748.421 310.315 753.24 312.388 758.538 312.388C766.007 312.388 772.549 308.436 776.316 302.509C778.135 305.716 781.518 307.918 785.443 307.918C789.88 307.918 793.646 305.165 795.242 301.246C796.327 301.634 797.476 301.861 798.688 301.861C802.55 301.861 805.87 299.756 807.721 296.646C813.657 302.412 831.115 297.812 833.86 291.82C852.754 291.69 865.616 287.965 865.616 284.759Z" fill="#31508C"/>
</svg>
