<svg width="1440" height="454" viewBox="0 0 1440 454" fill="none" xmlns="http://www.w3.org/2000/svg">
<path d="M1845.3 190.168C1841.28 186.055 1835.73 183.82 1829.95 184.694C1827.56 185.051 1825.36 185.958 1823.41 187.188C1819.96 181.844 1814.06 178.702 1807.87 179.674C1803.49 180.354 1799.82 182.945 1797.43 186.573C1791.08 179.998 1782.27 176.402 1773.11 177.795C1769.85 178.281 1766.89 179.512 1764.14 181.034C1758.21 169.924 1746.65 163.187 1734.52 165.065C1724.73 166.588 1716.94 173.325 1713.01 182.394C1704.91 177.892 1695.59 175.916 1686.04 177.406C1680.62 178.248 1675.61 180.16 1671.08 182.848C1664.37 169.438 1650.71 161.146 1636.32 163.381C1631.15 164.191 1626.52 166.361 1622.5 169.341C1617.58 151.947 1601.82 140.383 1585.09 142.974C1578.01 144.076 1571.85 147.574 1567.09 152.595C1554.9 128.042 1529.82 112.948 1503.52 116.997C1493.14 118.584 1483.83 122.989 1476.04 129.37C1459.31 108.251 1433.62 96.4284 1406.94 100.574C1386.96 103.652 1370.17 115.15 1358.84 131.249C1351.98 128.269 1344.42 127.103 1336.69 128.301C1329.07 129.467 1322.27 132.804 1316.65 137.598C1306.31 110.745 1280.49 93.578 1253.33 97.7888C1244.68 99.1169 1236.86 102.518 1230.06 107.409C1216.56 83.31 1191 68.8635 1164.25 72.9772C1152.67 74.7587 1142.36 79.8765 1133.87 87.2293C1106.61 55.1297 1066.14 37.5089 1024.21 43.9871C976.332 51.3723 939.565 88.2658 926.256 135.589C920.224 134.65 914 134.553 907.713 135.524C881.159 139.638 860.956 160.66 854.541 187.318C838.424 180.743 817.136 181.261 796.422 190.46C771.72 201.44 754.549 221.75 750.145 242.189C746.155 241.605 742.07 241.573 737.953 242.189C726.559 243.938 716.888 250.286 710.154 259.259C700.356 251.582 688.036 247.792 675.334 249.736C651.812 253.363 635.248 275.389 635.471 300.784C626.184 288.378 611.47 281.317 596.151 283.682C573.108 287.245 557.533 310.696 561.331 336.058C561.363 336.317 561.426 336.576 561.49 336.835C497.02 350.504 450.455 373.761 453.264 392.516C455.945 410.331 502.191 418.526 562.926 413.862C571.895 424.648 585.331 430.575 599.279 428.438C610.194 426.753 619.354 420.405 625.418 411.497C637.546 426.948 656.248 435.596 675.685 432.616C690.111 430.381 702.239 422.121 710.441 410.493C720.112 426.008 737.155 435.175 754.964 432.422C763.07 431.158 770.284 427.563 776.22 422.413C782.284 424.81 788.89 425.652 795.657 424.615C799.455 424.032 803.029 422.834 806.316 421.214C810.848 422.348 815.476 423.093 820.2 423.352C836.19 434.009 855.371 438.9 875.031 435.855C900.979 431.839 922.011 414.833 933.756 391.706C950.193 403.464 970.268 409.1 990.886 405.893C1005.47 403.626 1018.52 397.213 1029.25 387.981C1040.29 393.844 1052.87 396.338 1065.76 394.33C1076.68 392.645 1086.47 387.916 1094.55 381.082C1113.41 399.739 1139.23 409.489 1165.88 405.375C1187.52 402.039 1205.9 390.054 1218.8 373.114C1227.32 377.843 1237.15 379.883 1247.17 378.361C1259.94 376.385 1270.66 368.967 1277.78 358.538C1292.17 372.854 1311.93 380.369 1332.35 377.227C1355.65 373.632 1374.03 356.983 1382.52 334.924C1391.81 346.132 1405.73 352.351 1420.19 350.116C1428.87 348.788 1436.49 344.577 1442.4 338.52C1463.75 347.168 1490.97 350.31 1519.83 345.873C1561.28 339.459 1595.15 319.117 1610.59 294.403C1620.49 304.639 1634.31 310.113 1648.57 307.91C1665.94 305.222 1679.28 292.006 1684.29 274.936C1689.52 276.232 1695.04 276.62 1700.66 275.746C1714.77 273.576 1726.23 264.409 1732.7 251.938C1739.09 258.87 1748.12 262.66 1757.57 261.202C1768.39 259.518 1776.68 251.42 1780.1 240.893C1780.87 240.828 1781.63 240.925 1782.43 240.796C1790.44 239.565 1797.11 234.803 1801.42 228.163C1805.03 230.625 1809.33 231.823 1813.8 231.143C1818.88 230.366 1823.09 227.353 1825.84 223.175C1828.9 224.633 1832.31 225.28 1835.82 224.73C1840.87 223.952 1845.08 220.972 1847.83 216.826C1848.27 216.761 1848.69 216.729 1849.1 216.664C1869.18 213.555 1884.56 205.101 1883.47 197.78C1882.52 190.492 1865.38 187.059 1845.3 190.168Z" fill="#1F366B"/>
<path d="M957.023 357.274C958.172 334.503 898.042 311.635 817.072 302.015C817.104 301.691 817.136 301.4 817.168 301.076C818.7 270.336 796.646 243.905 767.858 242.059C748.74 240.828 731.538 250.805 721.644 266.644C718.771 236.261 695.696 211.676 666.302 209.797C650.471 208.793 635.79 214.591 624.684 224.827C615.3 214.818 602.63 208.243 588.395 207.336C583.225 207.012 578.214 207.498 573.395 208.599C565.48 184.63 541.83 162.118 510.106 151.591C483.488 142.78 457.253 144.367 438.231 153.923C427.029 122.698 399.613 99.6675 366.453 97.5297C358.601 97.0115 350.974 97.7888 343.665 99.5704C321.451 44.3758 271.695 4.11363 211.916 0.291477C159.574 -3.04481 111.988 22.2527 82.434 63.519C71.072 55.6156 57.7631 50.5949 43.3052 49.6556C29.7091 48.781 16.7194 51.6315 5.19775 57.3323L-85.2197 422.607C-76.0599 417.813 -67.8575 411.206 -61.0275 403.205C-51.006 414.898 -36.8992 422.672 -20.9413 423.676C-8.39838 424.486 3.41048 420.988 13.3044 414.445C31.2411 433.361 55.3056 445.767 82.3702 447.484C115.658 449.621 146.202 435.207 167.075 410.946C177.862 418.267 190.469 422.899 204.129 423.773C220.215 424.81 235.406 420.502 248.237 412.339C262.567 422.283 279.386 428.6 297.61 429.766C323.398 431.418 347.367 422.575 366.102 406.8C383.432 433.232 411.39 451.371 443.785 453.444C468.328 454.998 491.339 447.127 509.659 432.713C515.436 431.904 521.021 430.511 526.447 428.697C530.723 430.316 535.255 431.353 539.979 431.644C548.405 432.195 556.448 430.446 563.597 426.948C571.512 432.519 580.863 436.05 590.98 436.697C613.226 438.123 633.077 425.361 643.035 405.796C654.557 418.818 670.515 427.434 688.515 428.6C712.803 430.154 734.729 417.813 747.719 398.087C756.272 408.096 768.337 414.736 781.965 415.611C799.359 416.712 815.157 408.193 824.859 394.362C900.053 393.552 955.938 378.847 957.023 357.274Z" fill="#1F366B"/>
</svg>
