<svg width="489" height="424" viewBox="0 0 489 424" fill="none" xmlns="http://www.w3.org/2000/svg">
<path d="M378.175 65.8589C379.32 64.1492 377.069 62.3377 375.173 63.4435L295.702 109.806C294.745 110.364 294.438 111.461 295.006 112.3L319.328 148.279C320.145 149.487 322.193 149.443 323.026 148.2L378.175 65.8589Z" fill="#FAAA47"/>
<path d="M268.472 204.628C267.063 204.348 266.717 202.4 267.858 201.17L311.341 154.27C312.217 153.325 313.535 153.327 314.152 154.273L355.752 218.086C356.721 219.572 355.255 221.879 353.556 221.541L268.472 204.628Z" fill="#FE8515"/>
<path d="M280.221 164.211C278.588 164.779 276.935 163.4 277.44 161.891L293.983 112.455C294.511 110.877 296.878 110.631 297.808 112.058L321.028 147.664C321.684 148.671 321.188 149.962 319.983 150.381L280.221 164.211Z" fill="#FE9615"/>
<path d="M68.2453 314.421C66.6566 315.729 64.6324 313.667 65.5463 311.672L103.863 228.024C104.324 227.016 105.386 226.604 106.276 227.086L144.474 247.749C145.757 248.443 145.915 250.485 144.759 251.436L68.2453 314.421Z" fill="#FAAA47"/>
<path d="M201.774 210.343C201.357 208.969 199.385 208.816 198.273 210.072L155.879 257.96C155.025 258.924 155.157 260.236 156.159 260.757L223.757 295.875C225.331 296.693 227.482 295.007 226.978 293.35L201.774 210.343Z" fill="#FE8515"/>
<path d="M156.48 207.264C156.884 205.583 155.35 204.074 153.897 204.725L106.329 226.053C104.811 226.734 104.8 229.113 106.311 229.898L144.03 249.501C145.096 250.055 146.332 249.434 146.63 248.194L156.48 207.264Z" fill="#FE9615"/>
<g filter="url(#filter0_d_365_5)">
<path d="M313.23 283.341C314.128 285.174 312.025 287.018 310.325 285.886L190.09 205.818C189.577 205.477 189.251 204.919 189.204 204.305L183.582 130.359C183.465 128.811 185.079 127.725 186.469 128.418L253.105 161.637C253.498 161.833 253.816 162.152 254.009 162.546L313.23 283.341Z" fill="url(#paint0_linear_365_5)"/>
</g>
<circle cx="232" cy="153" r="11.5" fill="#FC5601" stroke="#FC5001"/>
<path d="M238.158 159.07L232.825 155.288L231.015 161.546L228.219 162.516L230.793 154.066L223.897 149.196L226.675 148.233L231.689 151.766L233.402 145.901L236.067 144.977L233.651 152.969L240.993 158.087L238.158 159.07Z" fill="#464B5A"/>
<circle cx="191" cy="178" r="11.5" fill="#FC5601" stroke="#FC5601"/>
<path d="M198.927 178.62L192.391 178.759L194.665 184.864L192.995 187.308L190.031 178.988L181.591 179.183L183.249 176.755L189.38 176.606L187.264 170.875L188.854 168.546L191.674 176.404L200.619 176.142L198.927 178.62Z" fill="#454958"/>
<defs>
<filter id="filter0_d_365_5" x="179.576" y="128.204" width="137.868" height="166.028" filterUnits="userSpaceOnUse" color-interpolation-filters="sRGB">
<feFlood flood-opacity="0" result="BackgroundImageFix"/>
<feColorMatrix in="SourceAlpha" type="matrix" values="0 0 0 0 0 0 0 0 0 0 0 0 0 0 0 0 0 0 127 0" result="hardAlpha"/>
<feOffset dy="4"/>
<feGaussianBlur stdDeviation="2"/>
<feComposite in2="hardAlpha" operator="out"/>
<feColorMatrix type="matrix" values="0 0 0 0 0 0 0 0 0 0 0 0 0 0 0 0 0 0 0.25 0"/>
<feBlend mode="normal" in2="BackgroundImageFix" result="effect1_dropShadow_365_5"/>
<feBlend mode="normal" in="SourceGraphic" in2="effect1_dropShadow_365_5" result="shape"/>
</filter>
<linearGradient id="paint0_linear_365_5" x1="298.541" y1="298.156" x2="150.904" y2="261.176" gradientUnits="userSpaceOnUse">
<stop stop-color="#F90000"/>
<stop offset="1" stop-color="#FF9900"/>
</linearGradient>
</defs>
</svg>
