<?xml version="1.0" encoding="utf-8"?>
<!DOCTYPE svg PUBLIC "-//W3C//DTD SVG 1.1//EN" "http://www.w3.org/Graphics/SVG/1.1/DTD/svg11.dtd">
<svg version="1.1" id="Layer_1" xmlns="http://www.w3.org/2000/svg" xmlns:xlink="http://www.w3.org/1999/xlink" x="0px" y="0px"
	 width="24px" height="24px" viewBox="0 0 150 150" enable-background="new 0 0 150 150" xml:space="preserve">

<g>

<ellipse opacity="0" fill="#27AAE1" cx="75.614" cy="51.809" rx="4.607" ry="13.976">
	<animate attributeName="opacity"
             values="0;1;0"
             dur="1s"
             begin="0.9"
             repeatCount="indefinite"/>
</ellipse>

<ellipse transform="matrix(0.809 -0.5878 0.5878 0.809 -21.0285 47.0354)" opacity="0" fill="#27AAE1" cx="61.866" cy="55.877" rx="4.607" ry="13.976">
	<animate attributeName="opacity"
             values="0;1;0"
             dur="1s"
             begin="0.8"
             repeatCount="indefinite"/>
</ellipse>

<ellipse transform="matrix(0.309 -0.9511 0.9511 0.309 -27.2432 97.0017)" opacity="0" fill="#27AAE1" cx="53.134" cy="67.249" rx="4.607" ry="13.976">
	<animate attributeName="opacity"
             values="0;1;0"
             dur="1s"
             begin="0.7"
             repeatCount="indefinite"/>
</ellipse>

<ellipse transform="matrix(-0.309 -0.9511 0.9511 -0.309 -8.5327 156.9648)" opacity="0" fill="#27AAE1" cx="52.754" cy="81.582" rx="4.607" ry="13.976">
	<animate attributeName="opacity"
             values="0;1;0"
             dur="1s"
             begin="0.6"
             repeatCount="indefinite"/>
</ellipse>

<ellipse transform="matrix(-0.809 -0.5878 0.5878 -0.809 55.2186 204.7429)" opacity="0" fill="#27AAE1" cx="60.872" cy="93.401" rx="4.607" ry="13.976">
	<animate attributeName="opacity"
             values="0;1;0"
             dur="1s"
             begin="0.5"
             repeatCount="indefinite"/>
</ellipse>

<ellipse opacity="0.4" fill="#27AAE1" cx="74.386" cy="98.191" rx="4.607" ry="13.976">
	<animate attributeName="opacity"
             values="0;1;0"
             dur="1s"
             begin="0.4"
             repeatCount="indefinite"/>
</ellipse>

<ellipse transform="matrix(-0.809 0.5878 -0.5878 -0.809 214.7603 118.4658)" opacity="0" fill="#27AAE1" cx="88.134" cy="94.123" rx="4.607" ry="13.976">
	<animate attributeName="opacity"
             values="0;1;0"
             dur="1s"
             begin="0.3"
             repeatCount="indefinite"/>
</ellipse>

<ellipse transform="matrix(-0.309 0.9511 -0.9511 -0.309 205.4996 16.197)" opacity="0" fill="#27AAE1" cx="96.866" cy="82.751" rx="4.607" ry="13.976">
	<animate attributeName="opacity"
             values="0;1;0"
             dur="1s"
             begin="0.2"
             repeatCount="indefinite"/>
</ellipse>

<ellipse transform="matrix(0.309 0.9511 -0.9511 0.309 132.2643 -45.2104)" opacity="0" fill="#27AAE1" cx="97.246" cy="68.418" rx="4.607" ry="13.976">
	<animate attributeName="opacity"
             values="0;1;0"
             dur="1s"
             begin="0.1"
             repeatCount="indefinite"/>
</ellipse>

<ellipse transform="matrix(0.809 0.5878 -0.5878 0.809 50.2902 -41.5787)" opacity="0" fill="#27AAE1" cx="89.128" cy="56.599" rx="4.607" ry="13.976">
	<animate attributeName="opacity"
             values="0;1;0"
             dur="1s"
             begin="0"
             repeatCount="indefinite"/>
</ellipse>

</g>
</svg>
