<svg version="1.0" xmlns="http://www.w3.org/2000/svg"
     width="116" height="55" viewBox="0 0 1274.000000 1280.000000"
     preserveAspectRatio="xMidYMid meet">
<metadata>
    Created by potrace 1.15, written by Peter Selinger 2001-2017
</metadata>
<g transform="translate(0.000000,1280.000000) scale(0.100000,-0.100000)"
   fill="" stroke="none">
    <path d="M6070 12718 c60 -114 71 -162 77 -354 9 -273 -22 -446 -112 -629 -85
-171 -184 -279 -490 -534 -304 -254 -468 -429 -541 -577 -25 -50 -29 -71 -28
-134 1 -90 22 -158 104 -325 48 -99 59 -132 64 -190 16 -172 16 -175 36 -175
14 0 21 10 25 38 40 231 64 294 131 348 105 85 152 136 175 187 26 61 30 137
10 186 l-15 35 -13 -79 c-7 -43 -21 -96 -32 -119 -18 -43 -108 -140 -174 -189
-20 -15 -50 -51 -67 -80 -24 -43 -30 -48 -36 -32 -22 69 -40 105 -88 175 -82
119 -86 185 -18 314 43 82 162 209 237 252 97 56 193 59 299 11 96 -44 134
-91 177 -215 39 -113 36 -150 -31 -482 -77 -377 -81 -447 -33 -583 35 -99 81
-181 136 -241 l37 -41 -25 58 c-27 64 -50 166 -59 267 l-6 65 22 -30 c55 -76
156 -163 230 -199 149 -71 302 -72 514 -1 182 60 320 138 715 398 243 161 282
199 383 379 38 68 89 151 112 185 78 110 212 215 339 264 134 52 202 59 930
89 273 12 549 32 675 50 237 34 459 32 530 -5 l32 -16 -96 -72 c-52 -39 -94
-72 -93 -73 1 -2 64 2 140 9 275 22 475 -20 745 -157 134 -68 135 -68 -113
-62 -121 3 -215 3 -210 1 23 -10 272 -56 428 -79 132 -20 179 -31 218 -52 103
-57 104 -56 -252 -49 -178 4 -322 5 -319 2 3 -2 77 -10 165 -16 245 -18 568
-51 584 -60 18 -11 -60 -40 -185 -71 -91 -22 -93 -22 -220 -6 -275 34 -342 29
-111 -9 166 -27 146 -37 -111 -56 -296 -21 -518 11 -787 116 -17 7 -17 5 5
-19 41 -45 162 -115 303 -174 128 -54 135 -56 222 -55 50 0 126 6 170 12 390
57 654 111 1135 231 250 62 801 209 807 214 2 2 -104 8 -235 15 -434 22 -717
55 -1007 117 -206 43 -338 85 -610 194 -289 115 -465 169 -660 202 -13 2 60
57 230 173 468 319 664 479 833 679 125 150 212 294 258 429 22 66 23 68 4 63
-11 -4 -28 -8 -37 -11 -11 -3 -33 -37 -52 -81 -80 -177 -244 -383 -405 -508
-350 -271 -842 -509 -1266 -611 -227 -54 -364 -69 -650 -70 -268 0 -358 8
-615 52 -49 8 -127 16 -172 16 -76 1 -87 -2 -156 -37 -143 -72 -276 -195 -422
-388 -40 -53 -76 -94 -79 -91 -3 4 -6 25 -6 48 0 183 -101 335 -287 434 l-22
11 25 -55 c13 -31 38 -82 54 -115 46 -92 60 -159 60 -295 0 -121 -20 -288 -38
-321 -17 -32 -393 -396 -461 -447 -36 -27 -94 -66 -131 -87 -256 -149 -647
-222 -800 -148 -25 12 -70 47 -102 78 -77 75 -83 100 -83 330 0 150 5 213 25
335 14 86 25 191 25 245 0 85 -3 101 -30 155 -66 132 -220 243 -390 280 l-76
17 121 59 c174 84 277 155 403 277 286 278 360 452 359 842 0 207 -34 342
-117 468 -35 52 -151 172 -166 172 -5 0 9 -33 31 -72z"/>
    <path d="M5376 12153 c51 -217 53 -345 7 -502 -34 -120 -97 -239 -227 -429
-110 -161 -153 -236 -203 -352 l-24 -55 4 85 c7 147 -7 223 -57 325 -83 168
-152 221 -286 218 -96 -1 -123 -12 -157 -64 -36 -54 -36 -107 -3 -173 l25 -49
5 84 c7 98 19 125 66 145 30 13 38 13 64 -1 58 -30 115 -133 143 -260 21 -93
33 -184 56 -405 34 -322 65 -423 144 -474 32 -22 32 -22 7 74 -13 49 -20 108
-20 170 0 186 74 327 275 525 168 165 228 265 277 462 20 77 23 115 23 303 l0
215 -58 116 c-77 156 -90 165 -61 42z"/>
    <path d="M319 11732 c247 -298 517 -583 799 -843 153 -141 203 -181 240 -193
54 -18 212 -49 218 -43 3 2 -99 104 -225 226 -245 237 -436 438 -386 407 17
-10 111 -76 210 -146 249 -175 365 -252 365 -242 0 5 -73 77 -162 160 -172
159 -256 242 -246 242 4 0 89 -44 190 -99 101 -54 213 -113 248 -130 l65 -32
-50 48 c-28 26 -88 82 -134 123 -46 40 -79 76 -73 78 11 3 254 -50 647 -142
127 -30 231 -53 233 -51 2 2 -26 24 -61 49 -133 95 -274 142 -662 221 -148 30
-306 64 -350 76 -209 53 -433 143 -745 297 -107 54 -198 99 -204 101 -5 2 33
-46 83 -107z"/>
    <path d="M2310 11474 c0 -43 49 -214 83 -287 87 -188 203 -310 381 -399 109
-55 205 -89 450 -159 322 -93 468 -154 637 -270 157 -108 170 -124 315 -409
146 -284 257 -490 262 -485 2 2 -8 42 -22 88 -14 47 -26 88 -26 92 0 4 21 -14
48 -40 92 -92 229 -165 308 -165 32 0 36 6 105 120 40 66 69 123 66 126 -3 3
-36 -10 -74 -29 l-68 -35 -106 8 c-121 8 -128 11 -206 100 -157 181 -231 365
-318 789 -14 69 -27 126 -29 128 -4 4 -30 -102 -46 -192 -6 -33 -13 -65 -15
-71 -2 -7 -48 32 -102 85 -157 155 -239 186 -553 215 -258 23 -367 51 -486
122 -213 128 -423 354 -556 601 -28 52 -48 79 -48 67z"/>
    <path d="M2280 10713 c-14 -3 -113 -27 -220 -53 -324 -82 -351 -85 -640 -84
-200 1 -281 5 -378 20 -67 11 -122 18 -122 16 0 -2 38 -40 83 -83 251 -236
430 -355 741 -491 455 -200 496 -213 676 -206 93 4 132 11 200 34 l85 29 -225
6 c-235 6 -312 17 -446 63 -80 27 -201 86 -262 128 -59 40 -164 129 -159 134
2 2 68 -19 147 -46 78 -28 145 -48 148 -45 3 2 -75 44 -172 91 -112 55 -183
96 -193 111 -9 13 -13 26 -10 29 3 3 85 -13 183 -35 99 -23 190 -43 204 -46
32 -6 -81 53 -225 117 -124 56 -144 69 -94 63 179 -24 381 -46 399 -43 15 2
-16 17 -86 42 -60 21 -113 42 -117 46 -23 20 352 54 508 46 209 -10 321 -47
435 -141 l55 -45 8 39 c12 60 -7 112 -62 173 -87 95 -200 139 -351 137 -47 -1
-96 -4 -110 -6z"/>
    <path d="M5283 10530 c-38 -16 -56 -55 -49 -107 3 -26 10 -51 15 -56 12 -12
48 45 62 98 5 22 12 48 15 58 6 19 -8 21 -43 7z"/>
    <path d="M9061 10441 c-19 -12 39 -45 214 -121 311 -136 461 -225 563 -335 65
-69 90 -105 73 -105 -6 0 -95 38 -197 85 -103 47 -189 83 -191 81 -2 -2 52
-36 119 -76 206 -122 338 -204 338 -211 0 -4 -22 -10 -49 -14 -46 -6 -59 -2
-232 75 -201 89 -279 122 -279 116 0 -4 107 -68 278 -167 50 -29 92 -56 92
-60 0 -3 -17 -9 -37 -13 -85 -14 -105 -8 -233 65 -143 81 -241 132 -245 127
-1 -2 63 -48 143 -103 80 -55 147 -105 149 -111 2 -6 -19 -23 -46 -37 l-49
-27 -115 69 c-63 38 -125 74 -138 80 -24 12 -24 11 0 -6 14 -10 56 -40 94 -66
38 -27 65 -52 61 -57 -15 -13 -102 -30 -121 -23 -10 3 -63 38 -118 78 -147
106 -262 181 -246 161 8 -9 65 -60 128 -113 62 -53 112 -97 110 -100 -7 -6
-140 38 -192 64 -27 14 -97 55 -155 91 -202 126 -193 123 -120 48 72 -74 67
-79 -34 -42 -98 35 -164 79 -289 192 -61 56 -114 100 -116 98 -10 -10 123
-189 194 -260 127 -127 261 -196 445 -228 344 -59 616 -66 985 -23 305 35 486
47 745 47 l215 1 -90 41 c-268 124 -749 374 -950 494 -245 146 -409 230 -515
262 -80 24 -170 35 -189 23z"/>
    <path d="M7846 9969 c-110 -26 -242 -114 -446 -299 -311 -281 -450 -376 -634
-435 -66 -22 -67 -23 -35 -28 19 -4 77 -9 129 -13 l96 -6 112 106 c246 232
399 317 574 319 53 1 92 -3 99 -10 8 -8 -8 -31 -61 -87 -134 -141 -256 -228
-402 -288 -88 -36 -86 -51 7 -51 82 0 145 36 271 154 61 57 133 116 160 131
67 36 150 51 230 42 63 -6 66 -6 56 12 -46 84 -138 144 -254 166 -38 7 -68 16
-68 21 0 4 9 25 20 46 27 53 102 118 203 174 48 27 87 51 87 53 0 7 -104 2
-144 -7z"/>
    <path d="M1980 9760 c-63 -13 -154 -60 -236 -121 -63 -47 -464 -445 -464 -460
0 -11 185 -24 325 -23 165 1 292 24 470 83 162 53 157 56 -72 44 -79 -5 -143
-5 -143 -2 0 3 47 27 105 54 58 26 104 50 102 52 -2 1 -72 -13 -156 -33 -84
-19 -162 -34 -173 -32 -12 2 26 28 110 76 71 40 138 79 148 87 26 20 -9 8
-240 -84 -98 -39 -183 -71 -188 -71 -12 0 41 74 99 136 129 140 253 215 422
257 52 13 90 26 84 30 -19 12 -147 16 -193 7z"/>
    <path d="M2722 9710 c-129 -19 -309 -200 -479 -482 -105 -173 -387 -788 -369
-805 6 -6 297 89 484 158 167 63 350 144 449 201 143 81 295 246 368 399 32
68 72 215 61 226 -2 2 -32 -49 -65 -114 -100 -194 -196 -303 -305 -348 l-38
-16 7 28 c3 15 31 88 61 162 30 73 53 135 51 137 -3 3 -73 -113 -190 -313 -19
-31 -43 -58 -62 -67 -45 -22 -126 -56 -132 -56 -2 0 10 17 27 38 17 20 59 71
93 112 75 90 68 87 -163 -88 -209 -159 -198 -151 -184 -132 6 8 49 62 95 120
47 58 98 123 114 145 27 37 28 38 5 20 -14 -11 -87 -78 -163 -150 -76 -71
-142 -131 -147 -133 -4 -2 -11 15 -15 37 -8 48 -3 56 170 266 58 72 111 139
117 150 11 22 6 17 -151 -128 -122 -113 -125 -113 -90 -1 49 160 110 273 201
369 73 79 156 135 307 209 62 30 116 58 119 61 8 7 -113 4 -176 -5z"/>
    <path d="M3710 9546 c-235 -184 -384 -504 -443 -954 l-14 -103 26 6 c14 4 53
18 86 33 220 97 392 244 530 452 36 53 65 101 65 105 0 5 -62 -54 -137 -131
-122 -123 -264 -236 -278 -222 -3 3 26 50 64 105 108 157 102 158 -46 5 -76
-78 -142 -143 -147 -142 -5 0 -6 18 -3 40 4 30 18 56 54 96 151 175 259 322
251 345 -7 21 -101 -57 -183 -152 -47 -54 -91 -99 -97 -99 -21 0 1 113 37 187
41 87 71 132 159 238 59 70 145 219 134 230 -2 2 -28 -15 -58 -39z"/>
    <path d="M4936 9437 c-145 -320 -181 -444 -173 -592 7 -110 45 -297 61 -292 6
2 50 61 98 132 59 86 97 154 116 209 34 94 73 226 66 226 -3 0 -52 -73 -110
-162 -59 -90 -111 -167 -116 -173 -7 -7 -8 8 -4 45 11 90 42 213 108 423 l61
198 -12 69 c-7 39 -16 70 -19 70 -4 0 -38 -69 -76 -153z"/>
    <path d="M8211 9513 c18 -32 69 -112 112 -178 139 -211 191 -328 264 -600 3
-13 -18 2 -58 40 -35 34 -74 69 -87 80 l-22 18 16 -39 c9 -21 36 -73 60 -114
80 -139 97 -185 89 -240 -4 -28 -10 -50 -13 -50 -4 0 -29 42 -56 93 -92 176
-128 238 -133 233 -3 -2 23 -90 58 -195 35 -104 60 -193 57 -196 -8 -8 -66 21
-96 48 -13 12 -41 60 -63 107 -48 103 -109 213 -115 207 -2 -2 16 -70 41 -151
49 -162 52 -176 31 -176 -66 0 -73 8 -159 156 -45 79 -85 144 -89 144 -4 0 11
-53 33 -117 21 -64 39 -118 39 -119 0 -1 -29 14 -65 33 -101 54 -137 109 -169
266 -8 38 -16 71 -18 73 -2 2 -2 -27 0 -64 l4 -67 -37 35 c-53 49 -73 102 -87
221 -6 57 -14 108 -18 112 -12 14 -19 -142 -9 -204 17 -108 65 -194 185 -335
63 -74 64 -77 64 -134 0 -92 -7 -99 -46 -42 -22 33 -48 57 -76 70 -41 20 -118
39 -118 30 0 -3 22 -42 49 -86 27 -45 63 -119 79 -165 32 -88 66 -236 60 -265
-2 -10 -27 24 -62 86 -32 57 -60 102 -62 100 -2 -2 17 -82 42 -177 25 -95 43
-175 40 -178 -9 -10 -102 86 -134 140 -28 47 -107 214 -158 336 -24 56 -25 30
-2 -50 38 -134 128 -328 225 -482 l24 -39 -23 7 c-13 4 -55 21 -95 37 l-72 30
-29 76 c-17 42 -45 118 -63 169 -18 51 -35 91 -37 88 -5 -4 16 -167 25 -199 5
-16 1 -18 -23 -12 -60 15 -71 30 -94 131 -12 52 -25 97 -30 100 -4 2 -10 -14
-14 -36 -6 -40 -7 -41 -29 -27 -35 23 -94 114 -121 187 -26 69 -55 181 -76
291 -17 95 -21 101 -36 55 -7 -22 -13 -85 -13 -140 -1 -162 34 -263 142 -408
77 -103 368 -395 510 -513 130 -107 287 -224 300 -224 5 0 6 130 2 332 l-8
333 79 -72 c44 -39 144 -132 224 -207 140 -130 145 -134 152 -108 4 14 19 121
33 236 33 274 31 266 61 266 40 0 122 -36 182 -81 31 -24 118 -102 192 -175
l135 -133 -90 182 c-103 207 -151 342 -195 542 -60 276 -83 371 -107 435 -70
186 -227 438 -369 592 -55 59 -144 138 -156 138 -5 0 5 -26 23 -57z m68 -1271
c106 -59 196 -112 198 -119 6 -16 -33 -213 -51 -256 l-13 -32 -58 117 c-33 65
-60 116 -61 115 -1 -1 6 -40 17 -87 10 -47 19 -95 19 -108 0 -22 -1 -22 -37
-7 -21 9 -42 21 -48 26 -5 5 -31 74 -58 152 l-47 142 6 -98 5 -97 -35 17 c-19
9 -38 23 -40 30 -3 8 -8 71 -11 141 -3 70 -8 140 -10 156 -6 36 -14 40 224
-92z"/>
    <path d="M9736 9521 c-8 -12 51 -64 174 -151 58 -41 137 -108 178 -149 115
-116 252 -337 377 -605 l45 -98 -57 49 c-60 51 -117 93 -127 93 -3 0 14 -28
38 -62 63 -92 138 -223 212 -369 58 -117 71 -153 40 -115 -113 138 -300 355
-304 352 -4 -5 103 -162 261 -380 48 -66 85 -121 83 -124 -3 -2 -32 9 -66 24
-57 26 -70 38 -177 173 -115 144 -310 371 -319 371 -8 0 9 -27 135 -218 66
-100 128 -196 136 -212 15 -30 15 -30 -12 -30 -16 0 -45 5 -65 10 -42 12 -34
4 -248 273 -188 236 -191 236 -40 2 53 -82 102 -160 109 -173 11 -21 11 -23
-6 -14 -10 6 -63 48 -118 94 -141 117 -185 151 -191 145 -7 -7 51 -121 98
-189 87 -130 175 -193 483 -348 261 -132 675 -308 675 -287 0 3 -30 68 -66
144 -147 310 -216 481 -303 759 -71 225 -101 292 -187 422 -98 147 -197 264
-317 378 -98 93 -247 203 -312 229 -38 17 -121 20 -129 6z"/>
    <path d="M9078 9423 c-27 -7 -22 -17 30 -53 72 -52 150 -129 198 -196 41 -57
104 -181 119 -233 7 -23 5 -22 -41 9 -27 19 -66 47 -86 63 -21 16 -38 25 -38
22 0 -4 41 -62 91 -128 l91 -120 -7 -51 c-11 -87 -15 -86 -100 28 -43 59 -80
104 -82 102 -2 -2 25 -66 61 -142 36 -75 66 -141 66 -146 0 -4 -13 -8 -28 -8
-25 0 -37 13 -92 93 -100 144 -192 268 -196 264 -3 -2 13 -52 35 -111 21 -58
36 -106 34 -106 -3 0 -33 15 -67 32 -77 41 -227 189 -282 277 l-39 65 -3 -43
c-9 -116 103 -232 454 -469 228 -154 286 -197 458 -340 42 -35 76 -57 76 -50
0 26 -62 316 -95 448 -88 348 -174 545 -295 674 -91 96 -185 139 -262 119z"/>
    <path d="M3981 8935 c-42 -61 -72 -153 -86 -263 -22 -174 -29 -282 -17 -282
18 0 159 99 217 151 62 57 126 149 179 259 39 79 31 74 -47 -34 -44 -60 -194
-204 -268 -257 l-29 -20 0 53 c1 89 18 198 51 311 17 60 29 110 27 112 -2 2
-14 -11 -27 -30z"/>
    <path d="M5047 8764 c-4 -7 -14 -42 -23 -80 -8 -37 -22 -83 -30 -102 -8 -19
-14 -51 -14 -71 0 -46 44 -139 103 -216 55 -72 164 -181 173 -173 5 6 -63 458
-71 466 -2 2 -11 -41 -20 -95 -10 -54 -21 -102 -25 -106 -10 -11 -38 105 -65
263 -11 69 -24 120 -28 114z"/>
    <path d="M2875 8728 c-220 -114 -380 -477 -480 -1088 -14 -85 -28 -170 -31
-187 -2 -18 -1 -33 4 -33 17 0 444 290 597 405 245 185 355 297 396 404 10 28
15 51 11 51 -4 0 -50 -43 -102 -96 -52 -53 -124 -119 -160 -148 -81 -65 -260
-190 -265 -184 -2 2 30 51 71 108 42 58 80 114 86 125 14 24 -86 -62 -167
-145 -33 -34 -80 -76 -105 -95 -49 -36 -120 -69 -120 -55 0 4 40 64 88 132 89
124 118 168 107 168 -3 0 -48 -38 -100 -86 l-95 -85 0 52 0 52 117 119 c64 65
113 118 109 118 -5 0 -51 -23 -103 -51 -52 -28 -97 -49 -100 -45 -8 8 24 129
56 211 32 83 78 156 152 245 109 129 116 151 34 108z"/>
    <path d="M6205 8603 c-26 -82 -51 -163 -56 -180 -9 -28 -13 -31 -29 -23 -38
20 -94 98 -146 205 l-55 110 3 -75 c3 -66 9 -87 50 -172 25 -53 62 -113 82
-135 39 -44 134 -100 145 -87 5 5 22 64 39 131 18 67 37 134 43 150 l11 28 18
-50 c61 -177 151 -283 407 -481 l123 -96 0 -98 c0 -305 119 -546 417 -844 109
-109 240 -222 248 -214 5 4 40 263 93 676 l19 143 -55 49 c-31 28 -57 48 -59
47 -1 -2 4 -41 12 -88 29 -163 16 -247 -59 -396 l-43 -87 -43 179 c-23 99 -45
187 -48 195 -4 8 -9 -63 -12 -158 l-5 -173 -42 30 c-52 38 -53 39 -80 146
l-23 90 5 -75 4 -75 -23 28 c-39 48 -116 182 -144 248 -21 53 -27 83 -29 174
-4 125 1 141 41 125 l27 -10 -3 313 c-3 289 -5 316 -24 367 -27 70 -106 232
-110 227 -2 -2 7 -37 21 -77 14 -40 24 -75 22 -76 -1 -2 -24 10 -50 27 -26 16
-47 27 -47 25 0 -2 18 -42 40 -88 49 -103 64 -175 50 -247 -11 -58 -49 -136
-61 -124 -7 8 -110 267 -124 311 -4 13 -9 21 -12 19 -2 -3 10 -89 27 -192 18
-102 30 -188 28 -191 -3 -2 -21 3 -41 11 -29 12 -38 23 -45 52 -5 21 -28 118
-52 216 -23 98 -44 177 -46 175 -2 -3 5 -71 16 -152 11 -82 20 -167 20 -190
l-1 -41 -27 32 c-15 18 -57 105 -92 194 -69 171 -80 177 -61 36 6 -44 9 -82 7
-84 -4 -4 -89 143 -177 304 -19 35 -37 63 -41 63 -4 0 -28 -66 -53 -147z"/>
    <path d="M4148 8485 c-66 -42 -95 -92 -127 -220 -49 -201 -52 -360 -11 -600
30 -177 19 -171 122 -69 215 213 341 434 393 692 29 142 15 136 -55 -24 l-65
-149 -5 100 c-3 55 -8 95 -12 89 -4 -6 -21 -61 -38 -123 -33 -123 -50 -161
-105 -236 l-37 -50 7 35 c3 19 15 77 26 128 12 50 19 97 17 104 -2 6 -26 -47
-52 -118 -27 -71 -56 -144 -66 -163 l-17 -35 -24 60 c-20 50 -23 77 -23 179 0
132 9 165 94 350 22 47 38 85 37 85 -2 0 -28 -16 -59 -35z"/>
    <path d="M5884 8480 c68 -345 31 -645 -115 -932 l-21 -42 -33 110 c-47 152
-100 275 -157 360 -49 74 -130 154 -136 135 -3 -9 30 -98 83 -224 l14 -34 -80
-89 c-97 -108 -165 -205 -218 -310 -42 -84 -98 -251 -87 -261 3 -3 78 24 168
60 89 37 163 65 165 63 2 -2 -32 -37 -77 -77 -197 -180 -316 -362 -404 -618
-29 -83 -33 -101 -19 -90 31 23 174 150 287 254 60 55 107 93 104 84 -80 -215
-111 -431 -89 -615 13 -102 46 -249 79 -343 l18 -54 18 142 c22 182 63 347
114 453 71 148 69 151 75 -93 8 -317 50 -523 158 -778 19 -44 24 -51 31 -35 4
10 30 125 58 254 52 239 128 562 156 658 l15 53 57 -45 c50 -39 189 -113 197
-104 12 13 48 223 52 308 6 119 -4 184 -44 272 -14 32 -24 60 -22 62 2 2 63
-18 134 -44 72 -26 131 -46 133 -45 6 5 -56 226 -83 300 -15 39 -42 98 -61
133 -19 34 -34 65 -34 67 0 3 47 5 104 5 57 0 124 3 149 6 l46 7 -81 111
c-145 199 -249 319 -371 423 -49 42 -96 92 -107 114 -11 21 -49 113 -85 204
-35 90 -71 177 -80 192 -16 28 -16 28 -11 3z m253 -599 c144 -115 266 -249
314 -343 l19 -38 -73 0 -74 0 -90 93 c-49 50 -112 117 -139 147 -93 104 -87
91 -73 159 6 34 13 61 15 61 2 0 47 -35 101 -79z m-102 -198 c75 -91 143 -190
200 -293 51 -92 138 -290 131 -297 -2 -2 -57 -1 -121 4 -135 10 -125 25 -80
-122 25 -79 29 -111 33 -252 2 -94 0 -163 -5 -163 -19 0 -101 59 -172 125 -88
81 -82 86 -106 -90 -20 -152 -57 -335 -90 -450 -34 -116 -87 -265 -96 -265 -8
0 -47 243 -90 558 -18 127 -35 232 -40 232 -4 0 -53 -68 -109 -150 -56 -83
-106 -153 -111 -156 -5 -3 -9 52 -9 129 0 140 17 264 50 378 11 36 20 69 20
73 0 3 -18 -3 -40 -14 -45 -23 -163 -53 -191 -48 -15 3 -9 17 42 93 64 97 146
186 220 241 26 19 73 66 104 105 31 39 59 69 61 66 2 -2 11 -66 20 -143 9 -76
17 -140 19 -142 5 -6 110 166 166 273 66 126 95 209 105 298 11 99 14 99 89
10z m-467 -30 c40 -125 40 -124 -17 -176 -50 -44 -256 -156 -267 -144 -9 8 33
131 67 199 36 70 99 142 148 168 20 11 39 19 42 20 3 0 15 -30 27 -67z"/>
    <path d="M3547 8363 c-82 -61 -156 -242 -196 -483 -36 -215 -86 -761 -79 -869
l3 -55 96 115 c170 202 292 377 402 577 55 98 147 302 147 323 0 6 -30 -24
-66 -68 -120 -142 -176 -204 -181 -199 -2 2 9 47 26 100 17 53 31 102 31 109
0 6 -52 -67 -116 -163 -63 -96 -125 -184 -136 -195 l-20 -20 5 66 c3 51 17 95
65 205 54 124 84 208 70 194 -3 -3 -36 -54 -74 -115 l-69 -110 -3 80 c-5 138
32 290 112 456 24 49 41 89 37 88 -3 0 -28 -16 -54 -36z"/>
    <path d="M4659 8259 c-10 -25 -10 -41 0 -78 14 -56 102 -235 134 -275 l23 -29
27 61 c29 65 60 176 71 257 7 50 7 49 -43 -50 -28 -55 -58 -109 -66 -120 -16
-19 -17 -20 -30 -1 -19 25 -73 177 -81 226 -8 48 -17 50 -35 9z"/>
    <path d="M3 7784 c4 -11 13 -50 22 -87 40 -180 177 -546 329 -879 148 -327
508 -1029 699 -1363 182 -320 300 -461 524 -627 96 -71 274 -185 393 -251 227
-126 609 -219 905 -221 l130 -1 145 59 c535 217 855 394 1078 598 327 298 724
827 936 1245 l56 110 0 131 c0 73 -3 132 -7 132 -5 0 -64 -41 -133 -91 -69
-49 -132 -88 -140 -85 -8 2 -22 7 -31 10 -12 5 -53 -36 -160 -161 -662 -770
-1094 -1138 -1651 -1408 -146 -70 -357 -155 -424 -169 -29 -7 -42 3 -215 155
-283 250 -393 352 -678 634 -620 612 -936 1002 -1406 1730 -225 348 -355 544
-368 552 -5 3 -7 -3 -4 -13z m499 -901 c95 -127 198 -272 228 -322 229 -380
381 -563 880 -1061 290 -290 489 -479 948 -900 111 -102 197 -186 192 -188
-13 -5 -201 26 -275 44 -207 52 -398 138 -595 270 -485 325 -609 485 -1090
1414 -126 243 -407 809 -467 940 -45 100 -33 86 179 -197z m4658 -437 c-13
-62 -46 -120 -208 -365 -358 -542 -784 -1019 -1073 -1198 -101 -63 -269 -145
-429 -208 -157 -63 -515 -185 -540 -185 -15 0 -172 122 -178 138 -1 5 57 35
130 66 271 119 598 296 828 449 357 238 605 465 971 892 113 132 242 274 286
317 86 82 216 174 221 158 2 -5 -2 -34 -8 -64z"/>
    <path d="M6492 7370 c-36 -16 -42 -23 -38 -42 7 -29 66 -366 66 -373 0 -3 16
-22 35 -44 69 -76 279 -470 394 -738 203 -476 292 -895 278 -1318 -9 -259 -50
-492 -133 -755 -55 -177 -198 -520 -215 -520 -5 0 -76 -11 -157 -24 -81 -14
-197 -30 -258 -37 -154 -16 -512 -7 -624 15 -47 10 -87 19 -88 21 -2 2 42 131
98 287 401 1109 516 1593 483 2025 -7 82 -22 212 -34 291 -22 139 -24 143 -45
138 -15 -4 -55 9 -114 36 -53 24 -94 37 -99 32 -5 -5 -59 -209 -121 -454 -63
-245 -115 -447 -117 -449 -2 -3 -19 3 -38 12 -62 30 -65 27 -65 -66 0 -326
-88 -740 -327 -1545 l-66 -222 -44 0 c-129 0 -274 55 -499 188 -67 40 -125 72
-128 72 -13 0 59 -92 124 -159 129 -133 268 -220 443 -277 93 -30 102 -35 99
-56 -6 -43 -130 -402 -205 -593 -153 -390 -262 -615 -387 -804 -314 -475 -929
-1266 -1495 -1924 -36 -42 -64 -77 -61 -77 3 0 54 39 115 88 400 320 875 825
1246 1322 322 432 720 1102 1075 1810 48 95 65 121 78 117 9 -2 91 -27 182
-55 261 -80 527 -128 811 -147 l95 -7 85 44 c187 97 400 257 574 432 220 221
339 421 392 660 23 106 21 340 -6 491 -99 557 -395 1263 -843 2010 -175 290
-390 615 -408 614 -8 0 -34 -9 -58 -19z m145 -222 c142 -210 326 -535 496
-875 347 -692 535 -1233 554 -1587 16 -309 -106 -567 -381 -807 -80 -70 -201
-148 -212 -136 -2 2 9 34 25 70 104 231 176 494 212 777 16 121 16 487 0 609
-34 269 -194 736 -425 1244 -117 257 -173 364 -237 453 -33 45 -66 101 -74
125 -13 38 -45 204 -45 231 0 19 20 -5 87 -104z m-491 -950 l27 -33 -7 -230
c-21 -692 -104 -1195 -297 -1790 -54 -167 -192 -541 -203 -553 -5 -4 -37 2
-183 34 -64 14 -73 19 -73 38 0 22 16 81 125 446 123 414 208 824 250 1204 6
56 8 59 45 73 l38 15 102 357 c56 196 110 382 118 414 9 31 19 57 23 57 4 0
20 -15 35 -32z m1401 -2286 c-168 -244 -405 -469 -654 -618 -57 -34 -125 -70
-152 -79 -48 -16 -55 -15 -218 14 -630 112 -1024 204 -1323 309 -75 26 -231
95 -226 99 2 2 84 -16 182 -41 515 -128 838 -173 1183 -163 209 6 313 22 471
72 207 66 482 232 710 428 36 30 67 53 69 51 3 -2 -16 -34 -42 -72z m-2064
-537 c56 -6 58 -8 53 -31 -13 -48 -108 -261 -175 -389 -114 -218 -359 -630
-369 -621 -2 2 48 129 111 283 151 369 168 414 216 580 56 195 56 194 83 189
13 -3 49 -8 81 -11z"/>
</g>
</svg>
