<svg width="21" height="21" viewBox="0 0 21 21" fill="none" xmlns="http://www.w3.org/2000/svg">
<path d="M19.8301 13.3181L19.8253 13.2941L17.7493 6.36938C17.461 5.41309 16.7305 4.65382 15.7791 4.33666L3.07815 0.0790007C2.66007 -0.0603584 2.20355 -0.0123035 1.82872 0.199138L9.29645 7.66686C9.48867 7.614 9.68569 7.58998 9.89233 7.58998C11.1658 7.58998 12.199 8.62316 12.199 9.89661C12.199 11.1701 11.1658 12.2032 9.89233 12.2032C8.61888 12.2032 7.5857 11.1701 7.5857 9.89661C7.5857 9.68997 7.61453 9.48814 7.66258 9.30073L0.199661 1.833C-0.0117809 2.20783 -0.0598357 2.65955 0.0795234 3.08243L4.33718 15.7833C4.65435 16.73 5.41362 17.4653 6.36991 17.7536L13.2946 19.8295L13.3186 19.8344L19.8301 13.3229V13.3181Z" fill="currentColor"/>
<line x1="14.1513" y1="20.5938" x2="20.5906" y2="14.1064" stroke="currentColor" stroke-width="1.15332"/>
</svg>
