<svg width="22" height="17" viewBox="0 0 22 17" fill="none" xmlns="http://www.w3.org/2000/svg">
<path d="M12.3164 2.33398L14.7744 4.79395L15.0771 5.0957H14.6494L9.77832 5.09766C7.05319 5.09841 5.67443 5.10134 4.82617 5.18164C4.40582 5.22144 4.12312 5.27977 3.87598 5.36328C3.62717 5.44739 3.40726 5.55885 3.1084 5.71582V5.7168C1.88885 6.35739 0.933211 7.45815 0.408203 8.83691C0.302675 9.11405 0.247023 9.29347 0.21582 9.5332C0.183785 9.77961 0.176758 10.094 0.176758 10.6416C0.176759 11.1889 0.183829 11.5027 0.21582 11.749C0.239218 11.929 0.276306 12.0752 0.337891 12.2539L0.408203 12.4463C0.761384 13.3739 1.19432 14.0292 1.87695 14.6748C2.33434 15.1075 2.93102 15.4867 3.54785 15.7578C4.16581 16.0294 4.79116 16.1874 5.30566 16.1875H5.53516V13.2285H5.40332C5.20224 13.2272 4.86878 13.1398 4.64551 13.0381C2.62518 12.1171 2.52048 9.33015 4.49023 8.33105L5.00391 8.07129L5.04102 8.05176H15.0771L14.7744 8.35449L12.3164 10.8145L10.1611 12.9707H14.5781L17.834 9.71484L21.0166 6.53125L17.834 3.39648L14.5791 0.186523L12.1914 0.182617L10.1611 0.177734L12.3164 2.33398Z" fill="currentColor"/>
</svg>
