<svg xmlns="http://www.w3.org/2000/svg">

    <defs>
        <style><![CDATA[
      .sprite { display: none; }
      .sprite:target { display: inline; }
    ]]></style>
    </defs>

    <g class="sprite" id="rightArrow" transform="translate(4 2)">
        <path fill="#a0a0a0" d="m12.14 8.753-5.482 4.796c-.646.566-1.658.106-1.658-.753V3.204a1 1 0 0 1 1.659-.753l5.48 4.796a1 1 0 0 1 0 1.506z"/>
    </g>

    <g class="sprite" id="leftArrow" transform="translate(4 2)">
        <path fill="#a0a0a0" d="m3.86 8.753 5.482 4.796c.646.566 1.658.106 1.658-.753V3.204a1 1 0 0 0-1.659-.753l-5.48 4.796a1 1 0 0 0 0 1.506z"/>
    </g>

    <g class="sprite" id="rightArrowDisabled" transform="translate(4 2)">
        <path fill="#6c7478" d="m12.14 8.753-5.482 4.796c-.646.566-1.658.106-1.658-.753V3.204a1 1 0 0 1 1.659-.753l5.48 4.796a1 1 0 0 1 0 1.506z"/>
    </g>

    <g class="sprite" id="leftArrowDisabled" transform="translate(4 2)">
        <path fill="#6c7478" d="m3.86 8.753 5.482 4.796c.646.566 1.658.106 1.658-.753V3.204a1 1 0 0 0-1.659-.753l-5.48 4.796a1 1 0 0 0 0 1.506z"/>
    </g>

    <g class="sprite" id="square">
        <rect y="5" x="5" width="90" height="90" stroke-width="5" stroke="#f00" fill="#f00" fill-opacity="0.5" />
    </g>

    <g class="sprite" id="triangle">
        <path d="M20,7 L92,50 L6,93 z" stroke-width="5" stroke="#00f" fill="#00f" fill-opacity="0.5" />
    </g>

</svg>
