<svg width="22" height="17" viewBox="0 0 22 17" fill="none" xmlns="http://www.w3.org/2000/svg">
<path d="M8.9502 2.33398L6.49219 4.79395L6.18945 5.0957H6.61719L11.4883 5.09766C14.2134 5.09841 15.5922 5.10134 16.4404 5.18164C16.8608 5.22144 17.1435 5.27977 17.3906 5.36328C17.6394 5.44739 17.8593 5.55885 18.1582 5.71582V5.7168C19.3778 6.35739 20.3334 7.45815 20.8584 8.83691C20.9639 9.11405 21.0196 9.29347 21.0508 9.5332C21.0828 9.77961 21.0898 10.094 21.0898 10.6416C21.0898 11.1889 21.0828 11.5027 21.0508 11.749C21.0274 11.929 20.9903 12.0752 20.9287 12.2539L20.8584 12.4463C20.5052 13.3739 20.0723 14.0292 19.3896 14.6748C18.9323 15.1075 18.3356 15.4867 17.7188 15.7578C17.1008 16.0294 16.4754 16.1874 15.9609 16.1875H15.7314V13.2285H15.8633C16.0644 13.2272 16.3978 13.1398 16.6211 13.0381C18.6414 12.1171 18.7461 9.33015 16.7764 8.33105L16.2627 8.07129L16.2256 8.05176H6.18945L6.49219 8.35449L8.9502 10.8145L11.1055 12.9707H6.68848L3.43262 9.71484L0.25 6.53125L3.43262 3.39648L6.6875 0.186523L9.0752 0.182617L11.1055 0.177734L8.9502 2.33398Z" fill="currentColor"/>
</svg>
