<?xml version="1.0" standalone="no"?>
<!DOCTYPE svg PUBLIC "-//W3C//DTD SVG 20010904//EN"
 "http://www.w3.org/TR/2001/REC-SVG-20010904/DTD/svg10.dtd">
<svg version="1.0" xmlns="http://www.w3.org/2000/svg"
 width="1000.000000pt" height="1000.000000pt" viewBox="0 0 1000.000000 1000.000000"
 preserveAspectRatio="xMidYMid meet">
<metadata>
Created by potrace 1.11, written by Peter Selinger 2001-2013
</metadata>
<g transform="translate(0.000000,1000.000000) scale(0.100000,-0.100000)"
fill="#000000" stroke="none">
<path d="M4985 9765 l-118 -115 41 -52 c103 -136 145 -257 146 -423 0 -204
-58 -346 -217 -523 -36 -40 -82 -98 -102 -128 -42 -63 -115 -214 -115 -237 0
-9 -4 -18 -9 -21 -4 -3 -12 -25 -16 -48 -10 -55 -11 -62 -14 -68 -13 -29 -19
-235 -9 -325 8 -72 51 -225 79 -278 10 -21 19 -44 19 -52 0 -8 4 -15 8 -15 5
0 14 -12 21 -27 16 -34 110 -160 144 -191 l25 -23 103 103 c147 147 138 127
84 194 -141 173 -182 442 -102 661 31 82 96 183 174 269 82 89 136 170 184
270 35 74 79 223 79 265 0 14 3 29 7 32 11 12 9 209 -4 277 -20 112 -23 123
-56 210 -46 124 -136 270 -209 338 l-25 23 -118 -116z"/>
<path d="M6107 9764 l-118 -116 24 -27 c40 -42 105 -149 128 -210 99 -264 41
-521 -167 -743 -43 -45 -120 -147 -143 -187 -53 -94 -103 -218 -116 -288 -2
-10 -4 -18 -5 -18 -6 0 -22 -140 -24 -210 -1 -27 3 -88 10 -135 22 -152 57
-256 129 -380 43 -73 150 -210 164 -210 8 0 231 224 231 233 0 3 -21 34 -48
69 -108 144 -143 280 -132 512 5 98 89 275 177 373 135 150 201 255 257 411
14 39 24 72 21 72 -2 0 0 12 5 26 23 59 33 277 18 369 -20 118 -65 253 -111
335 -11 19 -25 44 -31 55 -26 49 -138 187 -150 185 -1 0 -54 -53 -119 -116z"/>
<path d="M3857 9751 c-115 -117 -117 -118 -97 -136 33 -30 104 -145 127 -205
41 -105 47 -136 49 -251 1 -103 -2 -127 -26 -203 -39 -122 -86 -196 -194 -314
-135 -145 -226 -330 -261 -527 -13 -80 -14 -275 0 -345 12 -57 13 -65 15 -65
1 0 3 -9 5 -19 23 -121 125 -308 230 -420 l37 -39 120 121 121 121 -34 38
c-71 79 -132 204 -154 318 -9 50 -6 209 5 261 22 100 79 224 130 284 11 14 41
48 65 76 85 98 127 156 166 228 138 257 158 579 50 847 -32 80 -80 172 -93
177 -4 2 -8 8 -8 14 0 18 -115 158 -130 158 -3 0 -58 -53 -123 -119z"/>
<path d="M2103 6672 c-99 -34 -125 -101 -108 -272 2 -25 7 -83 10 -128 3 -46
8 -97 10 -113 2 -16 7 -71 10 -122 4 -50 8 -108 10 -127 2 -19 6 -73 10 -120
4 -47 8 -101 10 -120 3 -35 12 -137 20 -235 2 -27 7 -88 10 -135 3 -47 8 -98
10 -115 2 -16 7 -68 10 -115 3 -47 7 -105 10 -130 9 -97 17 -197 30 -365 5
-68 11 -132 20 -225 2 -25 7 -79 10 -120 7 -97 15 -204 20 -255 5 -62 14 -178
20 -257 3 -40 8 -95 10 -123 8 -73 15 -160 20 -240 3 -38 7 -90 10 -115 2 -25
7 -79 10 -120 3 -41 8 -95 10 -120 2 -25 7 -79 10 -120 3 -41 8 -95 10 -120 2
-25 7 -79 10 -120 3 -41 7 -100 10 -130 7 -76 14 -164 20 -235 2 -33 7 -85 9
-115 3 -30 8 -91 11 -135 3 -44 8 -102 10 -130 3 -27 7 -79 10 -115 11 -131
16 -196 20 -240 3 -25 7 -79 10 -120 3 -41 8 -93 10 -115 2 -22 7 -80 11 -130
3 -49 8 -103 9 -120 6 -77 19 -108 57 -146 25 -24 54 -41 76 -45 21 -4 1072
-7 2337 -7 l2300 0 42 21 c57 29 89 87 99 177 4 39 8 77 9 85 1 8 6 47 10 85
4 39 9 77 10 85 2 8 6 44 9 80 4 36 9 81 11 100 3 19 9 76 15 125 6 50 12 106
15 125 7 59 27 233 30 260 5 49 17 155 20 180 2 14 6 50 10 80 7 66 14 123 20
170 2 19 7 58 10 85 9 90 29 261 40 345 3 19 7 62 11 95 3 33 8 62 9 63 2 2
192 4 422 4 235 0 435 4 456 9 46 12 110 73 227 216 30 35 147 218 180 278 91
169 173 418 196 595 2 19 8 64 13 99 9 69 7 265 -3 327 -4 21 -9 57 -11 78
-13 99 -28 167 -71 306 -20 63 -40 119 -45 125 -5 5 -9 15 -9 22 0 19 -77 178
-131 269 -106 180 -280 383 -347 405 -25 8 -127 12 -323 12 l-286 0 3 26 c2
14 6 69 9 121 3 52 8 106 10 120 2 14 6 68 10 120 4 52 8 111 10 130 2 19 6
76 10 125 4 50 8 91 10 93 9 9 -20 92 -42 120 -54 72 209 66 -2911 66 -2251 1
-2820 -1 -2849 -12z m5422 -382 c-5 -64 -13 -146 -20 -205 -2 -16 -7 -57 -10
-90 -3 -33 -8 -73 -10 -90 -2 -16 -7 -66 -10 -110 -3 -44 -8 -87 -10 -95 -2
-8 -7 -53 -10 -100 -4 -47 -9 -94 -11 -105 -2 -11 -6 -51 -9 -90 -3 -38 -8
-81 -10 -95 -3 -23 -9 -77 -20 -185 -2 -22 -6 -69 -10 -105 -3 -36 -8 -76 -10
-90 -2 -14 -6 -60 -10 -102 -3 -42 -8 -86 -10 -97 -2 -10 -6 -56 -10 -101 -4
-45 -8 -89 -10 -98 -1 -10 -6 -51 -9 -92 -4 -41 -9 -86 -11 -100 -3 -14 -7
-61 -11 -104 -3 -44 -7 -87 -9 -95 -1 -9 -6 -50 -10 -91 -4 -41 -9 -88 -11
-105 -2 -16 -6 -59 -9 -95 -3 -36 -8 -81 -10 -100 -3 -19 -7 -60 -10 -90 -3
-30 -8 -73 -10 -95 -2 -22 -7 -69 -10 -105 -3 -36 -7 -76 -10 -90 -2 -14 -7
-54 -10 -90 -3 -36 -7 -81 -10 -100 -3 -19 -7 -64 -10 -100 -3 -36 -8 -76 -10
-90 -2 -14 -7 -63 -10 -110 -4 -47 -9 -93 -10 -102 -2 -9 -6 -48 -10 -85 -3
-37 -8 -84 -10 -103 -8 -68 -16 -145 -20 -185 -7 -87 -17 -181 -20 -205 -2
-14 -7 -54 -10 -90 -3 -36 -8 -76 -10 -90 -2 -14 -7 -59 -10 -100 -3 -41 -7
-86 -10 -100 -2 -14 -7 -59 -11 -100 -3 -41 -7 -86 -9 -100 -1 -14 -5 -52 -9
-85 -3 -33 -11 -100 -16 -150 -5 -49 -12 -110 -14 -133 -2 -24 -7 -46 -10 -49
-7 -7 -4205 -8 -4212 -1 -6 7 -10 36 -19 143 -3 44 -8 98 -10 120 -2 22 -7 72
-10 110 -6 76 -13 154 -19 225 -3 25 -7 81 -11 125 -3 44 -8 96 -10 115 -2 19
-7 71 -10 115 -3 44 -8 98 -10 120 -2 22 -7 72 -10 110 -3 39 -8 88 -10 110
-5 45 -12 130 -30 345 -5 61 -13 151 -19 220 -10 105 -17 179 -21 235 -3 33
-7 80 -10 105 -3 25 -7 79 -10 120 -3 41 -7 95 -10 120 -2 25 -7 81 -11 125
-4 44 -8 94 -10 110 -1 17 -5 68 -9 115 -4 47 -8 96 -10 110 -2 14 -7 61 -10
105 -4 44 -8 96 -10 115 -2 19 -7 78 -11 130 -3 52 -8 102 -9 111 -2 8 -6 55
-10 105 -4 49 -8 100 -10 114 -2 14 -7 63 -10 110 -4 47 -8 101 -10 120 -2 19
-7 73 -10 120 -3 47 -8 96 -10 110 -2 14 -7 63 -10 110 -4 47 -8 99 -10 115
-1 17 -6 71 -9 120 -4 50 -9 101 -11 115 -2 14 -7 61 -10 105 -4 44 -8 96 -10
115 -2 19 -6 73 -10 120 -4 47 -8 103 -11 125 -2 22 -7 74 -10 115 l-6 75
2601 0 2601 0 -5 -65z m848 -937 c151 -187 258 -411 307 -646 56 -270 45 -521
-35 -777 -50 -160 -134 -325 -231 -455 -78 -104 -97 -120 -152 -121 -26 -1
-173 -5 -327 -9 -154 -5 -300 -8 -325 -9 -39 -1 -45 2 -44 19 1 21 12 126 18
185 8 63 15 134 21 195 3 33 8 74 10 90 2 17 6 57 10 90 3 33 8 78 10 100 3
22 7 67 10 100 4 33 8 71 10 85 2 14 7 61 11 105 3 44 8 87 9 95 2 8 6 44 9
80 4 36 9 81 11 100 3 19 7 64 11 100 3 36 7 79 9 95 3 17 7 59 11 95 3 36 8
79 10 95 2 17 6 66 10 110 3 44 8 83 10 86 1 3 6 39 9 80 3 42 8 84 10 95 2
10 4 34 4 52 l1 32 269 0 269 0 55 -67z"/>
<path d="M4644 3982 l-422 -838 152 2 c83 0 156 2 163 2 6 1 60 98 119 215 59
116 148 293 199 392 225 439 535 1053 535 1059 0 3 -73 6 -162 6 l-163 0 -421
-838z"/>
<path d="M5749 4606 c-2 -2 -3 -64 -1 -138 l3 -133 47 -22 c26 -12 97 -45 157
-74 61 -28 191 -89 290 -136 99 -46 183 -88 188 -92 4 -4 -148 -83 -338 -176
l-345 -169 -1 -56 c-2 -124 0 -212 4 -216 2 -2 53 19 113 47 60 28 177 83 259
121 83 39 213 101 290 138 77 36 206 97 288 135 l147 68 0 99 c0 93 -1 99 -22
107 -13 5 -81 37 -153 71 -71 34 -157 74 -190 90 -33 16 -109 52 -170 80 -60
29 -137 65 -170 80 -33 15 -126 59 -206 98 -152 73 -183 85 -190 78z"/>
<path d="M3820 4469 c-140 -66 -277 -131 -305 -144 -91 -41 -208 -97 -345
-162 -74 -36 -145 -69 -157 -74 -22 -8 -23 -14 -23 -102 l0 -94 228 -108 c125
-60 308 -148 407 -196 351 -169 458 -219 463 -215 4 4 5 141 3 252 -1 29 -7
34 -73 64 -40 19 -145 68 -233 110 -88 42 -211 100 -272 130 -99 47 -134 70
-104 70 4 0 132 60 282 133 151 73 302 146 337 162 46 21 62 34 62 49 1 12 2
72 3 134 1 69 -2 112 -8 112 -5 0 -125 -54 -265 -121z"/>
<path d="M944 598 c-53 -14 -106 -79 -118 -144 -12 -64 31 -140 98 -174 25
-13 517 -15 4021 -15 l3991 0 36 24 c19 13 44 38 56 55 26 38 35 111 17 151
-15 36 -61 83 -95 98 -29 13 -7958 18 -8006 5z"/>
</g>
</svg>
