<svg xmlns="http://www.w3.org/2000/svg" version="1.1" x="0px" y="0px" width="100px" height="100px" viewBox="0 0 100 100" enable-background="new 0 0 100 100" xml:space="preserve">
<path fill="#000000" d="M95.784,59.057c1.867,0,3.604-1.514,3.858-3.364c0,0,0.357-2.6,0.357-5.692c0-3.092-0.357-5.692-0.357-5.692  c-0.255-1.851-1.991-3.364-3.858-3.364h-9.648c-1.868,0-3.808-1.191-4.31-2.646s-1.193-6.123,0.128-7.443l6.82-6.82  c1.32-1.321,1.422-3.575,0.226-5.01L80.976,11c-1.435-1.197-3.688-1.095-5.01,0.226l-6.82,6.82c-1.32,1.321-3.521,1.853-4.888,1.183  c-1.368-0.67-5.201-3.496-5.201-5.364V4.217c0-1.868-1.514-3.604-3.364-3.859c0,0-2.6-0.358-5.692-0.358s-5.692,0.358-5.692,0.358  c-1.851,0.254-3.365,1.991-3.365,3.859v9.648c0,1.868-1.19,3.807-2.646,4.31c-1.456,0.502-6.123,1.193-7.444-0.128l-6.82-6.82  C22.713,9.906,20.459,9.804,19.025,11L11,19.025c-1.197,1.435-1.095,3.689,0.226,5.01l6.819,6.82  c1.321,1.321,1.854,3.521,1.183,4.888s-3.496,5.201-5.364,5.201H4.217c-1.868,0-3.604,1.514-3.859,3.364c0,0-0.358,2.6-0.358,5.692  c0,3.093,0.358,5.692,0.358,5.692c0.254,1.851,1.991,3.364,3.859,3.364h9.648c1.868,0,3.807,1.19,4.309,2.646  c0.502,1.455,1.193,6.122-0.128,7.443l-6.819,6.819c-1.321,1.321-1.423,3.575-0.226,5.01L19.025,89  c1.435,1.196,3.688,1.095,5.009-0.226l6.82-6.82c1.321-1.32,3.521-1.853,4.889-1.183c1.368,0.67,5.201,3.496,5.201,5.364v9.648  c0,1.867,1.514,3.604,3.365,3.858c0,0,2.599,0.357,5.692,0.357s5.692-0.357,5.692-0.357c1.851-0.255,3.364-1.991,3.364-3.858v-9.648  c0-1.868,1.19-3.808,2.646-4.31s6.123-1.192,7.444,0.128l6.819,6.82c1.321,1.32,3.575,1.422,5.01,0.226L89,80.976  c1.196-1.435,1.095-3.688-0.227-5.01l-6.819-6.819c-1.321-1.321-1.854-3.521-1.183-4.889c0.67-1.368,3.496-5.201,5.364-5.201H95.784  z M50,68.302c-10.108,0-18.302-8.193-18.302-18.302c0-10.107,8.194-18.302,18.302-18.302c10.108,0,18.302,8.194,18.302,18.302  C68.302,60.108,60.108,68.302,50,68.302z"/>
</svg>