<svg xmlns="http://www.w3.org/2000/svg">
<!--icons sourced from https://icons.getbootstrap.com/ add more to this sprite sheet-->
    <defs>
        <style><![CDATA[
      .sprite { display: none; }
      .sprite:target { display: inline; }
    ]]></style>
    </defs>

    <g class="sprite" id="rightArrow" transform="translate(4 2)">
        <path fill="#a0a0a0" d="m12.14 8.753-5.482 4.796c-.646.566-1.658.106-1.658-.753V3.204a1 1 0 0 1 1.659-.753l5.48 4.796a1 1 0 0 1 0 1.506z"/>
    </g>

    <g class="sprite" id="leftArrow" transform="translate(4 2)">
        <path fill="#a0a0a0" d="m3.86 8.753 5.482 4.796c.646.566 1.658.106 1.658-.753V3.204a1 1 0 0 0-1.659-.753l-5.48 4.796a1 1 0 0 0 0 1.506z"/>
    </g>

    <g class="sprite" id="rightArrowDisabled" transform="translate(4 2)">
        <path fill="#6c7478" d="m12.14 8.753-5.482 4.796c-.646.566-1.658.106-1.658-.753V3.204a1 1 0 0 1 1.659-.753l5.48 4.796a1 1 0 0 1 0 1.506z"/>
    </g>

    <g class="sprite" id="leftArrowDisabled" transform="translate(4 2)">
        <path fill="#6c7478" d="m3.86 8.753 5.482 4.796c.646.566 1.658.106 1.658-.753V3.204a1 1 0 0 0-1.659-.753l-5.48 4.796a1 1 0 0 0 0 1.506z"/>
    </g>

    <g class="sprite" id="binoculars" transform="translate(4 1)">
        <path fill="#a0a0a0" d="M4.5 1A1.5 1.5 0 0 0 3 2.5V3h4v-.5A1.5 1.5 0 0 0 5.5 1h-1zM7 4v1h2V4h4v.882a.5.5 0 0 0 .276.447l.895.447A1.5 1.5 0 0 1 15 7.118V13H9v-1.5a.5.5 0 0 1 .146-.354l.854-.853V9.5a.5.5 0 0 0-.5-.5h-3a.5.5 0 0 0-.5.5v.793l.854.853A.5.5 0 0 1 7 11.5V13H1V7.118a1.5 1.5 0 0 1 .83-1.342l.894-.447A.5.5 0 0 0 3 4.882V4h4zM1 14v.5A1.5 1.5 0 0 0 2.5 16h3A1.5 1.5 0 0 0 7 14.5V14H1zm8 0v.5a1.5 1.5 0 0 0 1.5 1.5h3a1.5 1.5 0 0 0 1.5-1.5V14H9zm4-11H9v-.5A1.5 1.5 0 0 1 10.5 1h1A1.5 1.5 0 0 1 13 2.5V3z"/>
    </g>

    <g class="sprite" id="search" transform="translate(4 2)">
        <path fill="#a0a0a0" d="M11.742 10.344a6.5 6.5 0 1 0-1.397 1.398h-.001c.03.04.062.078.098.115l3.85 3.85a1 1 0 0 0 1.415-1.414l-3.85-3.85a1.007 1.007 0 0 0-.115-.1zM12 6.5a5.5 5.5 0 1 1-11 0 5.5 5.5 0 0 1 11 0z"/>
    </g>

</svg>
