<svg width="404" height="379" viewBox="0 0 404 379" fill="none" xmlns="http://www.w3.org/2000/svg">
<path d="M257.583 56.2967C258.298 54.3675 255.688 53.1297 254.102 54.6463L187.606 118.235C186.805 119.001 186.763 120.139 187.51 120.823L219.539 150.151C220.615 151.136 222.596 150.617 223.117 149.213L257.583 56.2967Z" fill="#FAAA47"/>
<path d="M174.217 195.848C172.782 195.904 171.992 194.09 172.815 192.628L204.185 136.894C204.817 135.771 206.099 135.466 206.92 136.243L262.232 188.619C263.52 189.839 262.631 192.423 260.9 192.49L174.217 195.848Z" fill="#FE8515"/>
<path d="M185.215 174.749C183.759 175.681 181.831 174.725 181.971 173.14L186.551 121.211C186.697 119.553 188.942 118.764 190.179 119.935L221.049 149.158C221.922 149.984 221.739 151.355 220.666 152.043L185.215 174.749Z" fill="#FE9615"/>
<path d="M57.785 191.426C55.7284 191.362 55.5663 188.477 57.5689 187.58L141.535 149.966C142.547 149.512 143.616 149.902 143.968 150.852L159.057 191.575C159.563 192.943 158.336 194.582 156.839 194.535L57.785 191.426Z" fill="#FAAA47"/>
<path d="M218.469 166.826C219.061 165.518 217.68 164.103 216.015 164.314L152.567 172.356C151.289 172.518 150.522 173.591 150.933 174.643L178.59 245.621C179.234 247.274 181.962 247.425 182.677 245.847L218.469 166.826Z" fill="#FE8515"/>
<path d="M194.78 169.058C196.193 168.061 196.034 165.914 194.513 165.446L144.689 150.11C143.099 149.621 141.522 151.402 142.14 152.989L157.567 192.599C158.003 193.719 159.342 194.067 160.384 193.332L194.78 169.058Z" fill="#FE9615"/>
<g filter="url(#filter0_d_6_204)">
<path d="M265.128 280.41C265.76 282.329 263.472 283.867 261.933 282.559L158.724 194.827C158.317 194.481 158.066 193.987 158.025 193.454L152.393 119.368C152.275 117.82 153.89 116.734 155.279 117.427L221.775 150.575C222.253 150.814 222.615 151.233 222.782 151.74L265.128 280.41Z" fill="url(#paint0_linear_6_204)"/>
</g>
<defs>
<filter id="filter0_d_6_204" x="148.387" y="117.213" width="120.849" height="173.832" filterUnits="userSpaceOnUse" color-interpolation-filters="sRGB">
<feFlood flood-opacity="0" result="BackgroundImageFix"/>
<feColorMatrix in="SourceAlpha" type="matrix" values="0 0 0 0 0 0 0 0 0 0 0 0 0 0 0 0 0 0 127 0" result="hardAlpha"/>
<feOffset dy="4"/>
<feGaussianBlur stdDeviation="2"/>
<feComposite in2="hardAlpha" operator="out"/>
<feColorMatrix type="matrix" values="0 0 0 0 0 0 0 0 0 0 0 0 0 0 0 0 0 0 0.25 0"/>
<feBlend mode="normal" in2="BackgroundImageFix" result="effect1_dropShadow_6_204"/>
<feBlend mode="normal" in="SourceGraphic" in2="effect1_dropShadow_6_204" result="shape"/>
</filter>
<linearGradient id="paint0_linear_6_204" x1="267.351" y1="287.165" x2="119.714" y2="250.185" gradientUnits="userSpaceOnUse">
<stop stop-color="#F90000"/>
<stop offset="1" stop-color="#FF9900"/>
</linearGradient>
</defs>
</svg>
