<svg viewBox="0 0 24 24" fill="none" xmlns="http://www.w3.org/2000/svg">
    <g id="SVGRepo_bgCarrier" stroke-width="0"></g>
    <g id="SVGRepo_tracerCarrier" stroke-linecap="round" stroke-linejoin="round"></g><g id="SVGRepo_iconCarrier">
    <path fill-rule="evenodd" clip-rule="evenodd" d="M15.3664 13H14.6484C13.6479 13.1083 12.9182 13.9976 13.0074 15V17C12.9182 18.0024 13.6479 18.8917 14.6484 19H15.3664C16.3669 18.8917 17.0966 18.0024 17.0074 17V15C17.0966 13.9976 16.3669 13.1083 15.3664 13Z" stroke="#000000" stroke-width="1.5" stroke-linecap="round" stroke-linejoin="round"></path> <path fill-rule="evenodd" clip-rule="evenodd" d="M15.3664 13H14.6484C13.6479 13.1083 12.9182 13.9976 13.0074 15V17C12.9182 18.0024 13.6479 18.8917 14.6484 19H15.3664C16.3669 18.8917 17.0966 18.0024 17.0074 17V15C17.0966 13.9976 16.3669 13.1083 15.3664 13Z" stroke="#000000" stroke-width="1.5" stroke-linecap="round" stroke-linejoin="round"></path> <path fill-rule="evenodd" clip-rule="evenodd" d="M9.36638 5H8.64838C7.64786 5.10828 6.91817 5.9976 7.00738 7V9C6.91817 10.0024 7.64786 10.8917 8.64838 11H9.36638C10.3669 10.8917 11.0966 10.0024 11.0074 9V7C11.0966 5.9976 10.3669 5.10828 9.36638 5Z" stroke="#000000" stroke-width="1.5" stroke-linecap="round" stroke-linejoin="round"></path> <path d="M8.25739 19C8.25739 19.4142 8.59317 19.75 9.00739 19.75C9.4216 19.75 9.75739 19.4142 9.75739 19H8.25739ZM9.00739 13H9.75739C9.75739 12.7401 9.6228 12.4987 9.40168 12.362C9.18057 12.2254 8.90447 12.2129 8.67198 12.3292L9.00739 13ZM6.67198 13.3292C6.30149 13.5144 6.15132 13.9649 6.33656 14.3354C6.52181 14.7059 6.97231 14.8561 7.3428 14.6708L6.67198 13.3292ZM9.00739 19.75C9.4216 19.75 9.75739 19.4142 9.75739 19C9.75739 18.5858 9.4216 18.25 9.00739 18.25V19.75ZM7.00739 18.25C6.59317 18.25 6.25739 18.5858 6.25739 19C6.25739 19.4142 6.59317 19.75 7.00739 19.75V18.25ZM9.00739 18.25C8.59317 18.25 8.25739 18.5858 8.25739 19C8.25739 19.4142 8.59317 19.75 9.00739 19.75V18.25ZM11.0074 19.75C11.4216 19.75 11.7574 19.4142 11.7574 19C11.7574 18.5858 11.4216 18.25 11.0074 18.25V19.75ZM14.2574 11C14.2574 11.4142 14.5932 11.75 15.0074 11.75C15.4216 11.75 15.7574 11.4142 15.7574 11H14.2574ZM15.0074 5H15.7574C15.7574 4.74007 15.6228 4.49867 15.4017 4.36201C15.1806 4.22536 14.9045 4.21293 14.672 4.32918L15.0074 5ZM12.672 5.32918C12.3015 5.51442 12.1513 5.96493 12.3366 6.33541C12.5218 6.70589 12.9723 6.85606 13.3428 6.67082L12.672 5.32918ZM15.0074 11.75C15.4216 11.75 15.7574 11.4142 15.7574 11C15.7574 10.5858 15.4216 10.25 15.0074 10.25V11.75ZM13.0074 10.25C12.5932 10.25 12.2574 10.5858 12.2574 11C12.2574 11.4142 12.5932 11.75 13.0074 11.75V10.25ZM15.0074 10.25C14.5932 10.25 14.2574 10.5858 14.2574 11C14.2574 11.4142 14.5932 11.75 15.0074 11.75V10.25ZM17.0074 11.75C17.4216 11.75 17.7574 11.4142 17.7574 11C17.7574 10.5858 17.4216 10.25 17.0074 10.25V11.75ZM9.75739 19V13H8.25739V19H9.75739ZM8.67198 12.3292L6.67198 13.3292L7.3428 14.6708L9.3428 13.6708L8.67198 12.3292ZM9.00739 18.25H7.00739V19.75H9.00739V18.25ZM9.00739 19.75H11.0074V18.25H9.00739V19.75ZM15.7574 11V5H14.2574V11H15.7574ZM14.672 4.32918L12.672 5.32918L13.3428 6.67082L15.3428 5.67082L14.672 4.32918ZM15.0074 10.25H13.0074V11.75H15.0074V10.25ZM15.0074 11.75H17.0074V10.25H15.0074V11.75Z" fill="white"></path> </g>
</svg>