<?xml version="1.0" encoding="utf-8"?>
<!-- Generated by IcoMoon.io -->
<!DOCTYPE svg PUBLIC "-//W3C//DTD SVG 1.1//EN" "http://www.w3.org/Graphics/SVG/1.1/DTD/svg11.dtd">
<svg version="1.1" xmlns="http://www.w3.org/2000/svg" xmlns:xlink="http://www.w3.org/1999/xlink" width="13" height="15" viewBox="0 0 13 15">
<path fill="#2EFC36" d="M8.571 7.5q0 0.887-0.628 1.515t-1.515 0.628-1.515-0.628-0.628-1.515 0.628-1.515 1.515-0.628 1.515 0.628 0.628 1.515zM6.429 2.946q-1.239 0-2.285 0.611t-1.657 1.657-0.611 2.285 0.611 2.285 1.657 1.657 2.285 0.611 2.285-0.611 1.657-1.657 0.611-2.285-0.611-2.285-1.657-1.657-2.285-0.611zM12.857 7.5q0 1.749-0.862 3.227t-2.34 2.34-3.227 0.862-3.227-0.862-2.34-2.34-0.862-3.227 0.862-3.227 2.34-2.34 3.227-0.862 3.227 0.862 2.34 2.34 0.862 3.227z"></path>
</svg>
