<svg width="1440" height="163" viewBox="0 0 1440 163" fill="none" xmlns="http://www.w3.org/2000/svg">
<path d="M1783.35 176.37C1783.35 170.086 1755.65 165 1720.61 164.579C1720.61 164.417 1720.64 164.255 1720.64 164.093C1720.64 152.757 1710.08 143.59 1697.02 143.59C1691.72 143.59 1686.87 145.112 1682.95 147.639C1682.88 147.542 1682.82 147.477 1682.76 147.38C1677.49 124.673 1654.38 107.603 1626.68 107.603C1621.96 107.603 1617.39 108.154 1612.99 109.093C1607.43 98.5337 1595.21 91.2133 1581.01 91.2133C1570.6 91.2133 1561.28 95.165 1554.84 101.384C1547.62 92.4766 1535.72 86.6461 1522.22 86.6461C1520.24 86.6461 1518.33 86.8081 1516.44 87.0348C1517.78 82.824 1518.55 78.4512 1518.55 73.884C1518.55 46.4487 1492.92 24.2284 1461.32 24.2284C1444.79 24.2284 1429.95 30.3503 1419.48 40.0677C1411.92 24.8438 1394.49 14.1871 1374.16 14.1871C1356.8 14.1871 1341.54 21.9934 1332.77 33.7514C1326.83 25.5564 1316.33 20.1147 1304.36 20.1147C1301.07 20.1147 1297.88 20.5358 1294.88 21.3132C1287.29 8.93976 1272.29 0.518066 1255.02 0.518066C1238.3 0.518066 1223.71 8.4539 1215.92 20.1795C1215.32 20.1471 1214.71 20.1147 1214.07 20.1147C1201.75 20.1147 1191 25.8803 1185.16 34.464C1174.78 25.8803 1160.77 20.5682 1145.33 20.5682C1128.31 20.5682 1113.06 26.9817 1102.49 37.1525C1087.65 27.8886 1069.46 22.4145 1049.77 22.4145C1022.7 22.4145 998.417 32.7797 981.884 49.1372C975.373 46.6107 968.161 45.1855 960.533 45.1855C931.553 45.1855 908.031 65.5595 908.031 90.7274C908.031 91.6668 908.127 92.6061 908.191 93.5455C905.446 92.93 902.605 92.5413 899.637 92.5413C886.68 92.5413 875.477 98.9224 869.86 108.219C863.03 105.206 855.338 103.49 847.136 103.49C825.465 103.49 807.05 115.377 799.932 132.026C798.528 131.832 797.124 131.735 795.688 131.735C780.496 131.735 767.985 141.743 766.453 154.57C766.038 154.538 765.655 154.506 765.24 154.506C755.952 154.506 748.165 160.012 745.963 167.462C743.697 167.332 741.399 167.235 739.005 167.235C720.079 167.235 704.217 171.511 699.525 177.341C698.025 177.277 696.493 177.244 694.929 177.244C672.333 177.244 653.981 183.366 653.981 190.913C653.981 198.46 672.301 204.582 694.929 204.582C697.866 204.582 700.706 204.485 703.451 204.291C710.153 208.793 724.005 211.87 740.09 211.87C741.654 211.87 743.218 211.838 744.75 211.773C746.633 219.126 754.165 224.632 763.197 224.632C765.24 224.632 767.251 224.341 769.102 223.79C775.581 231.467 786.049 236.455 797.858 236.455C803.762 236.455 809.348 235.192 814.263 232.989C819.529 237.395 826.71 240.115 834.593 240.115C842.604 240.115 849.849 237.33 855.147 232.827C864.37 242.804 878.541 249.217 894.435 249.217C907.521 249.217 919.393 244.845 928.362 237.783C932.511 245.622 941.607 251.064 952.203 251.064C961.65 251.064 969.916 246.723 974.544 240.213C982.14 244.197 990.98 246.496 1000.49 246.496C1012.2 246.496 1022.93 242.998 1031.48 237.2C1036.27 241.767 1043.19 244.683 1050.89 244.683C1058.45 244.683 1065.22 241.897 1070 237.459C1077.28 247.274 1089.95 253.784 1104.41 253.784C1115.8 253.784 1126.11 249.736 1133.55 243.193C1147.21 252.489 1167.19 258.319 1189.46 258.319C1216.88 258.319 1240.82 249.444 1253.78 236.228C1261.69 247.533 1275.99 255.113 1292.36 255.113C1297.82 255.113 1303.02 254.238 1307.84 252.683C1313.84 261.202 1324.63 266.935 1336.98 266.935C1349.24 266.935 1359.96 261.299 1365.96 252.878C1379.49 261.429 1396.12 266.482 1414.12 266.482C1442.27 266.482 1467.07 254.173 1481.81 235.386C1490.81 243.581 1503.45 248.699 1517.53 248.699C1532.21 248.699 1545.33 243.128 1554.36 234.285C1557.61 235.322 1561.09 235.937 1564.76 235.937C1568.94 235.937 1572.93 235.192 1576.57 233.832C1586.34 236.326 1597.6 237.751 1609.64 237.751C1643.88 237.751 1672.06 226.22 1676.44 211.255C1677.01 211.287 1677.55 211.32 1678.13 211.32C1686.14 211.32 1693.22 207.854 1697.5 202.542C1700.82 204.064 1704.59 204.939 1708.58 204.939C1720.32 204.939 1730.05 197.489 1731.87 187.739C1761.36 186.605 1783.35 181.941 1783.35 176.37Z" fill="white"/>
<path d="M803.507 168.855C797.283 168.078 791.539 167.851 787.07 168.078C786.368 165 781.581 162.409 775.485 162.053C769.293 161.664 764.027 163.737 762.846 166.749C760.357 164.644 756.846 163.284 752.952 163.284C749.378 163.284 746.154 164.417 743.697 166.231C740.856 163.024 736.324 160.887 731.154 160.53C729.494 156.643 724.962 153.825 719.537 153.825C717.654 153.825 715.898 154.182 714.302 154.797C710.377 149.193 702.876 145.436 694.291 145.436C688.482 145.436 683.216 147.153 679.163 150.003C673.674 146.699 666.907 144.723 659.503 144.723C654.779 144.723 650.343 145.533 646.29 146.958C644.854 137.921 635.215 130.925 623.502 130.925C621.842 130.925 620.183 131.087 618.619 131.346C618.619 131.216 618.651 131.054 618.651 130.925C618.651 120.786 608.374 112.559 595.671 112.559C593.948 112.559 592.288 112.721 590.692 113.013C584.405 94.5172 563.341 80.8805 538.191 80.8805C526.35 80.8805 515.435 83.9253 506.499 89.0755C504.36 73.0419 487.413 60.5713 466.795 60.5713C455.178 60.5713 444.741 64.5878 437.433 70.9041C434.177 41.7844 403.634 18.9487 366.388 18.9487C349.249 18.9487 333.547 23.7749 321.227 31.8403C304.344 12.9239 276.673 0.582886 245.395 0.582886C200.394 0.582886 162.893 26.0747 154.148 59.9558C147.765 58.4982 141.031 57.6561 134.073 57.6561C96.8592 57.6561 66.2519 80.0384 62.0071 108.899C57.6665 107.7 53.0068 107.02 48.1556 107.02C32.3892 107.02 18.6654 113.92 11.3886 124.155C6.92043 123.119 2.22879 122.503 -2.65433 122.503C-19.9846 122.503 -35.2084 129.629 -44.081 140.383C-47.4641 138.569 -51.5174 137.5 -55.8899 137.5C-65.5285 137.5 -73.6351 142.65 -76.2203 149.679C-78.1352 148.999 -80.2736 148.61 -82.5077 148.61C-89.6249 148.61 -95.5612 152.4 -97.5081 157.615C-102.487 158.425 -106.668 160.887 -109.221 164.255C-109.381 164.255 -109.54 164.223 -109.732 164.223C-113.657 164.223 -117.136 165.551 -119.626 167.689C-120.775 164.676 -126.073 162.603 -132.264 162.992C-138.36 163.381 -143.148 165.972 -143.85 169.017C-148.318 168.79 -154.063 169.049 -160.286 169.794C-173.883 171.479 -184.447 175.009 -183.936 177.698C-183.457 180.127 -174.234 181.034 -162.553 179.965C-160.063 181.649 -154.861 182.913 -148.701 183.107C-143.212 183.269 -138.36 182.492 -135.52 181.228C-133.541 183.172 -130.541 184.435 -127.158 184.435C-124.413 184.435 -121.924 183.593 -120.009 182.232C-117.519 184.532 -113.881 185.99 -109.796 185.99C-107.019 185.99 -104.434 185.31 -102.295 184.176C-99.806 185.212 -97.0613 185.86 -94.0612 185.86C-88.9227 185.86 -84.3269 184.111 -81.0715 181.293C-77.2096 185.245 -71.1776 187.771 -64.4433 187.771C-57.1027 187.771 -50.6238 184.791 -46.8258 180.257C-38.5915 193.051 -21.9634 201.829 -2.71815 201.829C12.7929 201.829 26.6444 196.128 35.7404 187.221C42.315 199.788 57.8261 208.631 75.9224 208.631C95.4549 208.631 111.987 198.363 117.509 184.208C123.732 197.359 139.594 206.72 158.201 206.72C174.798 206.72 189.223 199.303 196.564 188.354C209.299 205.133 232.278 216.373 258.608 216.373C278.875 216.373 297.195 209.733 310.344 199.011C318.451 209.409 332.877 216.373 349.345 216.373C363.069 216.373 375.356 211.546 383.782 203.902C397.57 213.458 415.57 219.256 435.262 219.256C459.008 219.256 480.296 210.834 494.69 197.521C503.594 203.222 514.892 206.688 527.212 206.688C544.478 206.688 559.702 199.95 569.181 189.618C576.394 195.383 586.384 198.946 597.395 198.946C611.629 198.946 624.108 192.954 631.194 183.982C636.843 191.755 647.343 197.003 659.407 197.003C668.886 197.003 677.408 193.764 683.344 188.613C687.174 190.978 691.993 192.403 697.195 192.403C705.526 192.403 712.802 188.775 716.76 183.431C719.92 186.249 724.452 188.063 729.558 188.063C735.367 188.063 740.473 185.763 743.601 182.232C746.027 184.046 749.25 185.18 752.857 185.18C756.942 185.18 760.58 183.69 763.102 181.423C765.017 182.783 767.506 183.625 770.251 183.625C773.634 183.625 776.634 182.362 778.613 180.419C781.485 181.682 786.304 182.427 791.794 182.297C797.954 182.135 803.156 180.872 805.645 179.155C817.326 180.192 826.582 179.285 827.029 176.888C827.699 174.07 817.103 170.539 803.507 168.855Z" fill="white"/>
</svg>
